solid OpenSCAD_Model
  facet normal -1 0 0
    outer loop
      vertex 0 79.4973 0
      vertex 0 14 4
      vertex 0 79.4973 8
    endloop
  endfacet
  facet normal -1 0 0
    outer loop
      vertex 0 79.4973 0
      vertex 0 13.9239 3.61732
      vertex 0 14 4
    endloop
  endfacet
  facet normal -1 0 0
    outer loop
      vertex 0 79.4973 0
      vertex 0 13.7071 3.29289
      vertex 0 13.9239 3.61732
    endloop
  endfacet
  facet normal -1 0 0
    outer loop
      vertex 0 79.4973 0
      vertex 0 13.3827 3.07612
      vertex 0 13.7071 3.29289
    endloop
  endfacet
  facet normal -1 0 0
    outer loop
      vertex 0 79.4973 0
      vertex 0 13 3
      vertex 0 13.3827 3.07612
    endloop
  endfacet
  facet normal -1 0 0
    outer loop
      vertex 0 12.0761 3.61732
      vertex 0 6 4
      vertex 0 12 4
    endloop
  endfacet
  facet normal -1 0 0
    outer loop
      vertex 0 5.92388 3.61732
      vertex 0 12.0761 3.61732
      vertex 0 12.2929 3.29289
    endloop
  endfacet
  facet normal -1 0 0
    outer loop
      vertex 0 5.70711 3.29289
      vertex 0 12.2929 3.29289
      vertex 0 12.6173 3.07612
    endloop
  endfacet
  facet normal -1 0 0
    outer loop
      vertex 0 0 0
      vertex 0 12.6173 3.07612
      vertex 0 13 3
    endloop
  endfacet
  facet normal -1 0 0
    outer loop
      vertex 0 12.0761 3.61732
      vertex 0 5.92388 3.61732
      vertex 0 6 4
    endloop
  endfacet
  facet normal -1 0 0
    outer loop
      vertex 0 12.2929 3.29289
      vertex 0 5.70711 3.29289
      vertex 0 5.92388 3.61732
    endloop
  endfacet
  facet normal -1 0 0
    outer loop
      vertex 0 0 0
      vertex 0 13 3
      vertex 0 79.4973 0
    endloop
  endfacet
  facet normal -1 0 0
    outer loop
      vertex 0 12.6173 3.07612
      vertex 0 5.38268 3.07612
      vertex 0 5.70711 3.29289
    endloop
  endfacet
  facet normal -1 -0 0
    outer loop
      vertex 0 12.6173 3.07612
      vertex 0 0 0
      vertex 0 5.38268 3.07612
    endloop
  endfacet
  facet normal -1 -0 0
    outer loop
      vertex 0 4.07612 3.61732
      vertex 0 0 0
      vertex 0 4 4
    endloop
  endfacet
  facet normal -1 -0 0
    outer loop
      vertex 0 4.29289 3.29289
      vertex 0 0 0
      vertex 0 4.07612 3.61732
    endloop
  endfacet
  facet normal -1 -0 0
    outer loop
      vertex 0 4.61732 3.07612
      vertex 0 0 0
      vertex 0 4.29289 3.29289
    endloop
  endfacet
  facet normal -1 -0 0
    outer loop
      vertex 0 5 3
      vertex 0 0 0
      vertex 0 4.61732 3.07612
    endloop
  endfacet
  facet normal -1 0 0
    outer loop
      vertex 0 5.38268 3.07612
      vertex 0 0 0
      vertex 0 5 3
    endloop
  endfacet
  facet normal -1 0 0
    outer loop
      vertex 0 13.9239 4.38268
      vertex 0 79.4973 8
      vertex 0 14 4
    endloop
  endfacet
  facet normal -1 0 0
    outer loop
      vertex 0 13.7071 4.70711
      vertex 0 79.4973 8
      vertex 0 13.9239 4.38268
    endloop
  endfacet
  facet normal -1 0 0
    outer loop
      vertex 0 13.3827 4.92388
      vertex 0 79.4973 8
      vertex 0 13.7071 4.70711
    endloop
  endfacet
  facet normal -1 0 0
    outer loop
      vertex 0 13 5
      vertex 0 79.4973 8
      vertex 0 13.3827 4.92388
    endloop
  endfacet
  facet normal -1 0 0
    outer loop
      vertex 0 6 4
      vertex 0 12.0761 4.38268
      vertex 0 12 4
    endloop
  endfacet
  facet normal -1 0 0
    outer loop
      vertex 0 5.92388 4.38268
      vertex 0 12.0761 4.38268
      vertex 0 6 4
    endloop
  endfacet
  facet normal -1 0 0
    outer loop
      vertex 0 12.0761 4.38268
      vertex 0 5.92388 4.38268
      vertex 0 12.2929 4.70711
    endloop
  endfacet
  facet normal -1 0 0
    outer loop
      vertex 0 5.70711 4.70711
      vertex 0 12.2929 4.70711
      vertex 0 5.92388 4.38268
    endloop
  endfacet
  facet normal -1 0 0
    outer loop
      vertex 0 12.2929 4.70711
      vertex 0 5.70711 4.70711
      vertex 0 12.6173 4.92388
    endloop
  endfacet
  facet normal -1 0 0
    outer loop
      vertex 0 5.38268 4.92388
      vertex 0 12.6173 4.92388
      vertex 0 5.70711 4.70711
    endloop
  endfacet
  facet normal -1 0 0
    outer loop
      vertex 0 0 8
      vertex 0 12.6173 4.92388
      vertex 0 5.38268 4.92388
    endloop
  endfacet
  facet normal -1 0 0
    outer loop
      vertex 0 12.6173 4.92388
      vertex 0 0 8
      vertex 0 13 5
    endloop
  endfacet
  facet normal -1 0 0
    outer loop
      vertex 0 0 8
      vertex 0 5.38268 4.92388
      vertex 0 5 5
    endloop
  endfacet
  facet normal -1 0 0
    outer loop
      vertex 0 0 8
      vertex 0 4 4
      vertex 0 0 0
    endloop
  endfacet
  facet normal -1 0 0
    outer loop
      vertex 0 4 4
      vertex 0 0 8
      vertex 0 4.07612 4.38268
    endloop
  endfacet
  facet normal -1 0 0
    outer loop
      vertex 0 13 5
      vertex 0 0 8
      vertex 0 79.4973 8
    endloop
  endfacet
  facet normal -1 0 0
    outer loop
      vertex 0 4.61732 4.92388
      vertex 0 0 8
      vertex 0 5 5
    endloop
  endfacet
  facet normal -1 0 0
    outer loop
      vertex 0 4.29289 4.70711
      vertex 0 0 8
      vertex 0 4.61732 4.92388
    endloop
  endfacet
  facet normal -1 0 0
    outer loop
      vertex 0 4.07612 4.38268
      vertex 0 0 8
      vertex 0 4.29289 4.70711
    endloop
  endfacet
  facet normal -1 0 0
    outer loop
      vertex 0 100 0
      vertex 0 98 4
      vertex 0 100 8
    endloop
  endfacet
  facet normal -1 0 0
    outer loop
      vertex 0 100 0
      vertex 0 97.9239 3.61732
      vertex 0 98 4
    endloop
  endfacet
  facet normal -1 0 0
    outer loop
      vertex 0 100 0
      vertex 0 97.7071 3.29289
      vertex 0 97.9239 3.61732
    endloop
  endfacet
  facet normal -1 0 0
    outer loop
      vertex 0 100 0
      vertex 0 97.3827 3.07612
      vertex 0 97.7071 3.29289
    endloop
  endfacet
  facet normal -1 0 0
    outer loop
      vertex 0 100 0
      vertex 0 97 3
      vertex 0 97.3827 3.07612
    endloop
  endfacet
  facet normal -1 0 0
    outer loop
      vertex 0 93.5027 0
      vertex 0 97 3
      vertex 0 100 0
    endloop
  endfacet
  facet normal -1 -0 0
    outer loop
      vertex 0 97 3
      vertex 0 93.5027 0
      vertex 0 96.6173 3.07612
    endloop
  endfacet
  facet normal -1 -0 0
    outer loop
      vertex 0 96.0761 3.61732
      vertex 0 93.5027 0
      vertex 0 96 4
    endloop
  endfacet
  facet normal -1 -0 0
    outer loop
      vertex 0 96.2929 3.29289
      vertex 0 93.5027 0
      vertex 0 96.0761 3.61732
    endloop
  endfacet
  facet normal -1 -0 0
    outer loop
      vertex 0 96.6173 3.07612
      vertex 0 93.5027 0
      vertex 0 96.2929 3.29289
    endloop
  endfacet
  facet normal -1 0 0
    outer loop
      vertex 0 97.9239 4.38268
      vertex 0 100 8
      vertex 0 98 4
    endloop
  endfacet
  facet normal -1 0 0
    outer loop
      vertex 0 97.7071 4.70711
      vertex 0 100 8
      vertex 0 97.9239 4.38268
    endloop
  endfacet
  facet normal -1 0 0
    outer loop
      vertex 0 97.3827 4.92388
      vertex 0 100 8
      vertex 0 97.7071 4.70711
    endloop
  endfacet
  facet normal -1 0 0
    outer loop
      vertex 0 97 5
      vertex 0 100 8
      vertex 0 97.3827 4.92388
    endloop
  endfacet
  facet normal -1 0 0
    outer loop
      vertex 0 93.5027 8
      vertex 0 97 5
      vertex 0 96.6173 4.92388
    endloop
  endfacet
  facet normal -1 0 0
    outer loop
      vertex 0 93.5027 8
      vertex 0 96.6173 4.92388
      vertex 0 96.2929 4.70711
    endloop
  endfacet
  facet normal -1 0 0
    outer loop
      vertex 0 93.5027 8
      vertex 0 96 4
      vertex 0 93.5027 0
    endloop
  endfacet
  facet normal -1 0 0
    outer loop
      vertex 0 97 5
      vertex 0 93.5027 8
      vertex 0 100 8
    endloop
  endfacet
  facet normal -1 0 0
    outer loop
      vertex 0 96.0761 4.38268
      vertex 0 93.5027 8
      vertex 0 96.2929 4.70711
    endloop
  endfacet
  facet normal -1 0 0
    outer loop
      vertex 0 96 4
      vertex 0 93.5027 8
      vertex 0 96.0761 4.38268
    endloop
  endfacet
  facet normal -0 0 1
    outer loop
      vertex 0 93.5027 8
      vertex 1.5 91.8011 8
      vertex 1.5 100 8
    endloop
  endfacet
  facet normal 0 0 1
    outer loop
      vertex 0 93.5027 8
      vertex 1.5 100 8
      vertex 0 100 8
    endloop
  endfacet
  facet normal 0 0 1
    outer loop
      vertex 1.5 91.8011 8
      vertex 0 93.5027 8
      vertex 0.395241 91.5813 8
    endloop
  endfacet
  facet normal -0 0 1
    outer loop
      vertex -0.370125 93.4291 8
      vertex 0.395241 91.5813 8
      vertex 0 93.5027 8
    endloop
  endfacet
  facet normal 0 0 1
    outer loop
      vertex -0.370125 93.4291 8
      vertex -1.38909 90.3891 8
      vertex 0.395241 91.5813 8
    endloop
  endfacet
  facet normal -0 0 1
    outer loop
      vertex -2.8033 91.8033 8
      vertex -1.38909 90.3891 8
      vertex -0.370125 93.4291 8
    endloop
  endfacet
  facet normal 0 0 1
    outer loop
      vertex -1.38909 90.3891 8
      vertex -2.8033 91.8033 8
      vertex -2.58134 88.6048 8
    endloop
  endfacet
  facet normal -0 0 1
    outer loop
      vertex -4.4291 89.3701 8
      vertex -2.58134 88.6048 8
      vertex -2.8033 91.8033 8
    endloop
  endfacet
  facet normal 0 0 1
    outer loop
      vertex -2.58134 88.6048 8
      vertex -4.4291 89.3701 8
      vertex -3 86.5 8
    endloop
  endfacet
  facet normal 0 0 1
    outer loop
      vertex 0.395241 81.4187 8
      vertex -0.370125 79.5709 8
      vertex 0 79.4973 8
    endloop
  endfacet
  facet normal 0 0 1
    outer loop
      vertex -1.38909 82.6109 8
      vertex -0.370125 79.5709 8
      vertex 0.395241 81.4187 8
    endloop
  endfacet
  facet normal 0 0 1
    outer loop
      vertex -2.8033 81.1967 8
      vertex -1.38909 82.6109 8
      vertex -2.58134 84.3952 8
    endloop
  endfacet
  facet normal 0 0 1
    outer loop
      vertex -1.38909 82.6109 8
      vertex -2.8033 81.1967 8
      vertex -0.370125 79.5709 8
    endloop
  endfacet
  facet normal 0 0 1
    outer loop
      vertex -4.4291 83.6299 8
      vertex -2.58134 84.3952 8
      vertex -3 86.5 8
    endloop
  endfacet
  facet normal 0 0 1
    outer loop
      vertex -5 86.5 8
      vertex -3 86.5 8
      vertex -4.4291 89.3701 8
    endloop
  endfacet
  facet normal 0 0 1
    outer loop
      vertex -2.58134 84.3952 8
      vertex -4.4291 83.6299 8
      vertex -2.8033 81.1967 8
    endloop
  endfacet
  facet normal 0 0 1
    outer loop
      vertex -3 86.5 8
      vertex -5 86.5 8
      vertex -4.4291 83.6299 8
    endloop
  endfacet
  facet normal -0 0 1
    outer loop
      vertex 3.5 100 8
      vertex 5 93.5027 8
      vertex 5 100 8
    endloop
  endfacet
  facet normal 0 0 1
    outer loop
      vertex 5 93.5027 8
      vertex 3.5 100 8
      vertex 3.5 91.8011 8
    endloop
  endfacet
  facet normal 0 0 1
    outer loop
      vertex 5 93.5027 8
      vertex 3.5 91.8011 8
      vertex 4.60476 91.5813 8
    endloop
  endfacet
  facet normal 0 0 1
    outer loop
      vertex 8 86.5 8
      vertex 10 86.5 8
      vertex 9.4291 89.3701 8
    endloop
  endfacet
  facet normal 0 0 1
    outer loop
      vertex 10 86.5 8
      vertex 8 86.5 8
      vertex 9.4291 83.6299 8
    endloop
  endfacet
  facet normal 0 0 1
    outer loop
      vertex 7.58134 88.6048 8
      vertex 9.4291 89.3701 8
      vertex 7.8033 91.8033 8
    endloop
  endfacet
  facet normal 0 0 1
    outer loop
      vertex 9.4291 89.3701 8
      vertex 7.58134 88.6048 8
      vertex 8 86.5 8
    endloop
  endfacet
  facet normal 0 0 1
    outer loop
      vertex 7.8033 91.8033 8
      vertex 6.38909 90.3891 8
      vertex 7.58134 88.6048 8
    endloop
  endfacet
  facet normal 0 0 1
    outer loop
      vertex 5.37012 93.4291 8
      vertex 6.38909 90.3891 8
      vertex 7.8033 91.8033 8
    endloop
  endfacet
  facet normal 0 0 1
    outer loop
      vertex 4.60476 91.5813 8
      vertex 5.37012 93.4291 8
      vertex 5 93.5027 8
    endloop
  endfacet
  facet normal 0 0 1
    outer loop
      vertex 5.37012 93.4291 8
      vertex 4.60476 91.5813 8
      vertex 6.38909 90.3891 8
    endloop
  endfacet
  facet normal -0 0 1
    outer loop
      vertex 7.58134 84.3952 8
      vertex 9.4291 83.6299 8
      vertex 8 86.5 8
    endloop
  endfacet
  facet normal 0 0 1
    outer loop
      vertex 9.4291 83.6299 8
      vertex 7.58134 84.3952 8
      vertex 7.8033 81.1967 8
    endloop
  endfacet
  facet normal -0 0 1
    outer loop
      vertex 6.38909 82.6109 8
      vertex 7.8033 81.1967 8
      vertex 7.58134 84.3952 8
    endloop
  endfacet
  facet normal 0 0 1
    outer loop
      vertex 6.38909 82.6109 8
      vertex 5.37012 79.5709 8
      vertex 7.8033 81.1967 8
    endloop
  endfacet
  facet normal -0 0 1
    outer loop
      vertex 4.60476 81.4187 8
      vertex 5.37012 79.5709 8
      vertex 6.38909 82.6109 8
    endloop
  endfacet
  facet normal 0 0 1
    outer loop
      vertex 5.37012 79.5709 8
      vertex 4.60476 81.4187 8
      vertex 5 79.4973 8
    endloop
  endfacet
  facet normal -0 0 1
    outer loop
      vertex 2.5 81 8
      vertex 5 79.4973 8
      vertex 4.60476 81.4187 8
    endloop
  endfacet
  facet normal 0 0 1
    outer loop
      vertex 5 79.4973 8
      vertex 2.5 81 8
      vertex 0 79.4973 8
    endloop
  endfacet
  facet normal 0 0 1
    outer loop
      vertex 0 79.4973 8
      vertex 2.5 81 8
      vertex 0.395241 81.4187 8
    endloop
  endfacet
  facet normal 0 0 1
    outer loop
      vertex 5 79.4973 8
      vertex 0 79.4973 8
      vertex 5 0 8
    endloop
  endfacet
  facet normal 0 0 1
    outer loop
      vertex 5 0 8
      vertex 0 79.4973 8
      vertex 0 0 8
    endloop
  endfacet
  facet normal 1 0 0
    outer loop
      vertex 5 79.4973 8
      vertex 5 14 4
      vertex 5 79.4973 0
    endloop
  endfacet
  facet normal 1 0 0
    outer loop
      vertex 5 79.4973 8
      vertex 5 13.9239 4.38268
      vertex 5 14 4
    endloop
  endfacet
  facet normal 1 0 0
    outer loop
      vertex 5 79.4973 8
      vertex 5 13.7071 4.70711
      vertex 5 13.9239 4.38268
    endloop
  endfacet
  facet normal 1 0 0
    outer loop
      vertex 5 79.4973 8
      vertex 5 13.3827 4.92388
      vertex 5 13.7071 4.70711
    endloop
  endfacet
  facet normal 1 0 0
    outer loop
      vertex 5 79.4973 8
      vertex 5 13 5
      vertex 5 13.3827 4.92388
    endloop
  endfacet
  facet normal 1 0 0
    outer loop
      vertex 5 12.0761 4.38268
      vertex 5 6 4
      vertex 5 12 4
    endloop
  endfacet
  facet normal 1 0 0
    outer loop
      vertex 5 5.92388 4.38268
      vertex 5 12.0761 4.38268
      vertex 5 12.2929 4.70711
    endloop
  endfacet
  facet normal 1 0 0
    outer loop
      vertex 5 5.70711 4.70711
      vertex 5 12.2929 4.70711
      vertex 5 12.6173 4.92388
    endloop
  endfacet
  facet normal 1 0 0
    outer loop
      vertex 5 0 8
      vertex 5 12.6173 4.92388
      vertex 5 13 5
    endloop
  endfacet
  facet normal 1 0 0
    outer loop
      vertex 5 12.0761 4.38268
      vertex 5 5.92388 4.38268
      vertex 5 6 4
    endloop
  endfacet
  facet normal 1 0 0
    outer loop
      vertex 5 12.2929 4.70711
      vertex 5 5.70711 4.70711
      vertex 5 5.92388 4.38268
    endloop
  endfacet
  facet normal 1 -0 0
    outer loop
      vertex 5 0 8
      vertex 5 13 5
      vertex 5 79.4973 8
    endloop
  endfacet
  facet normal 1 0 0
    outer loop
      vertex 5 12.6173 4.92388
      vertex 5 5.38268 4.92388
      vertex 5 5.70711 4.70711
    endloop
  endfacet
  facet normal 1 0 0
    outer loop
      vertex 5 12.6173 4.92388
      vertex 5 0 8
      vertex 5 5.38268 4.92388
    endloop
  endfacet
  facet normal 1 0 0
    outer loop
      vertex 5 4.07612 4.38268
      vertex 5 0 8
      vertex 5 4 4
    endloop
  endfacet
  facet normal 1 0 0
    outer loop
      vertex 5 4.29289 4.70711
      vertex 5 0 8
      vertex 5 4.07612 4.38268
    endloop
  endfacet
  facet normal 1 0 0
    outer loop
      vertex 5 4.61732 4.92388
      vertex 5 0 8
      vertex 5 4.29289 4.70711
    endloop
  endfacet
  facet normal 1 0 0
    outer loop
      vertex 5 5 5
      vertex 5 0 8
      vertex 5 4.61732 4.92388
    endloop
  endfacet
  facet normal 1 0 0
    outer loop
      vertex 5 5.38268 4.92388
      vertex 5 0 8
      vertex 5 5 5
    endloop
  endfacet
  facet normal 1 -0 0
    outer loop
      vertex 5 13.9239 3.61732
      vertex 5 79.4973 0
      vertex 5 14 4
    endloop
  endfacet
  facet normal 1 -0 0
    outer loop
      vertex 5 13.7071 3.29289
      vertex 5 79.4973 0
      vertex 5 13.9239 3.61732
    endloop
  endfacet
  facet normal 1 -0 0
    outer loop
      vertex 5 13.3827 3.07612
      vertex 5 79.4973 0
      vertex 5 13.7071 3.29289
    endloop
  endfacet
  facet normal 1 -0 0
    outer loop
      vertex 5 13 3
      vertex 5 79.4973 0
      vertex 5 13.3827 3.07612
    endloop
  endfacet
  facet normal 1 -0 0
    outer loop
      vertex 5 6 4
      vertex 5 12.0761 3.61732
      vertex 5 12 4
    endloop
  endfacet
  facet normal 1 0 0
    outer loop
      vertex 5 5.92388 3.61732
      vertex 5 12.0761 3.61732
      vertex 5 6 4
    endloop
  endfacet
  facet normal 1 0 0
    outer loop
      vertex 5 12.0761 3.61732
      vertex 5 5.92388 3.61732
      vertex 5 12.2929 3.29289
    endloop
  endfacet
  facet normal 1 0 0
    outer loop
      vertex 5 5.70711 3.29289
      vertex 5 12.2929 3.29289
      vertex 5 5.92388 3.61732
    endloop
  endfacet
  facet normal 1 0 0
    outer loop
      vertex 5 12.2929 3.29289
      vertex 5 5.70711 3.29289
      vertex 5 12.6173 3.07612
    endloop
  endfacet
  facet normal 1 0 0
    outer loop
      vertex 5 5.38268 3.07612
      vertex 5 12.6173 3.07612
      vertex 5 5.70711 3.29289
    endloop
  endfacet
  facet normal 1 0 0
    outer loop
      vertex 5 0 0
      vertex 5 12.6173 3.07612
      vertex 5 5.38268 3.07612
    endloop
  endfacet
  facet normal 1 0 0
    outer loop
      vertex 5 12.6173 3.07612
      vertex 5 0 0
      vertex 5 13 3
    endloop
  endfacet
  facet normal 1 0 0
    outer loop
      vertex 5 0 0
      vertex 5 5.38268 3.07612
      vertex 5 5 3
    endloop
  endfacet
  facet normal 1 0 0
    outer loop
      vertex 5 0 0
      vertex 5 4 4
      vertex 5 0 8
    endloop
  endfacet
  facet normal 1 0 0
    outer loop
      vertex 5 4 4
      vertex 5 0 0
      vertex 5 4.07612 3.61732
    endloop
  endfacet
  facet normal 1 0 0
    outer loop
      vertex 5 13 3
      vertex 5 0 0
      vertex 5 79.4973 0
    endloop
  endfacet
  facet normal 1 0 0
    outer loop
      vertex 5 4.61732 3.07612
      vertex 5 0 0
      vertex 5 5 3
    endloop
  endfacet
  facet normal 1 0 0
    outer loop
      vertex 5 4.29289 3.29289
      vertex 5 0 0
      vertex 5 4.61732 3.07612
    endloop
  endfacet
  facet normal 1 0 0
    outer loop
      vertex 5 4.07612 3.61732
      vertex 5 0 0
      vertex 5 4.29289 3.29289
    endloop
  endfacet
  facet normal 1 0 0
    outer loop
      vertex 5 100 8
      vertex 5 98 4
      vertex 5 100 0
    endloop
  endfacet
  facet normal 1 0 0
    outer loop
      vertex 5 100 8
      vertex 5 97.9239 4.38268
      vertex 5 98 4
    endloop
  endfacet
  facet normal 1 0 0
    outer loop
      vertex 5 100 8
      vertex 5 97.7071 4.70711
      vertex 5 97.9239 4.38268
    endloop
  endfacet
  facet normal 1 0 0
    outer loop
      vertex 5 100 8
      vertex 5 97.3827 4.92388
      vertex 5 97.7071 4.70711
    endloop
  endfacet
  facet normal 1 0 0
    outer loop
      vertex 5 100 8
      vertex 5 97 5
      vertex 5 97.3827 4.92388
    endloop
  endfacet
  facet normal 1 -0 0
    outer loop
      vertex 5 93.5027 8
      vertex 5 97 5
      vertex 5 100 8
    endloop
  endfacet
  facet normal 1 0 0
    outer loop
      vertex 5 97 5
      vertex 5 93.5027 8
      vertex 5 96.6173 4.92388
    endloop
  endfacet
  facet normal 1 0 0
    outer loop
      vertex 5 96.0761 4.38268
      vertex 5 93.5027 8
      vertex 5 96 4
    endloop
  endfacet
  facet normal 1 0 0
    outer loop
      vertex 5 96.2929 4.70711
      vertex 5 93.5027 8
      vertex 5 96.0761 4.38268
    endloop
  endfacet
  facet normal 1 0 0
    outer loop
      vertex 5 96.6173 4.92388
      vertex 5 93.5027 8
      vertex 5 96.2929 4.70711
    endloop
  endfacet
  facet normal 1 -0 0
    outer loop
      vertex 5 97.9239 3.61732
      vertex 5 100 0
      vertex 5 98 4
    endloop
  endfacet
  facet normal 1 -0 0
    outer loop
      vertex 5 97.7071 3.29289
      vertex 5 100 0
      vertex 5 97.9239 3.61732
    endloop
  endfacet
  facet normal 1 -0 0
    outer loop
      vertex 5 97.3827 3.07612
      vertex 5 100 0
      vertex 5 97.7071 3.29289
    endloop
  endfacet
  facet normal 1 -0 0
    outer loop
      vertex 5 97 3
      vertex 5 100 0
      vertex 5 97.3827 3.07612
    endloop
  endfacet
  facet normal 1 0 0
    outer loop
      vertex 5 93.5027 0
      vertex 5 97 3
      vertex 5 96.6173 3.07612
    endloop
  endfacet
  facet normal 1 0 0
    outer loop
      vertex 5 93.5027 0
      vertex 5 96.6173 3.07612
      vertex 5 96.2929 3.29289
    endloop
  endfacet
  facet normal 1 0 0
    outer loop
      vertex 5 93.5027 0
      vertex 5 96 4
      vertex 5 93.5027 8
    endloop
  endfacet
  facet normal 1 0 0
    outer loop
      vertex 5 97 3
      vertex 5 93.5027 0
      vertex 5 100 0
    endloop
  endfacet
  facet normal 1 0 0
    outer loop
      vertex 5 96.0761 3.61732
      vertex 5 93.5027 0
      vertex 5 96.2929 3.29289
    endloop
  endfacet
  facet normal 1 0 0
    outer loop
      vertex 5 96 4
      vertex 5 93.5027 0
      vertex 5 96.0761 3.61732
    endloop
  endfacet
  facet normal 0 1 -0
    outer loop
      vertex 5 100 0
      vertex 3.5 100 8
      vertex 5 100 8
    endloop
  endfacet
  facet normal 0 1 0
    outer loop
      vertex 3.5 100 8
      vertex 5 100 0
      vertex 3.5 100 0
    endloop
  endfacet
  facet normal 0 1 -0
    outer loop
      vertex 1.5 100 0
      vertex 0 100 8
      vertex 1.5 100 8
    endloop
  endfacet
  facet normal 0 1 0
    outer loop
      vertex 0 100 8
      vertex 1.5 100 0
      vertex 0 100 0
    endloop
  endfacet
  facet normal 0 0 -1
    outer loop
      vertex 0 79.4973 0
      vertex 5 79.4973 0
      vertex 5 0 0
    endloop
  endfacet
  facet normal 0 -0 -1
    outer loop
      vertex 2.5 81 0
      vertex 5 79.4973 0
      vertex 0 79.4973 0
    endloop
  endfacet
  facet normal 0 0 -1
    outer loop
      vertex 5 79.4973 0
      vertex 2.5 81 0
      vertex 4.60476 81.4187 0
    endloop
  endfacet
  facet normal 0 0 -1
    outer loop
      vertex 0 79.4973 0
      vertex 5 0 0
      vertex 0 0 0
    endloop
  endfacet
  facet normal -0 0 -1
    outer loop
      vertex 2.5 81 0
      vertex 0 79.4973 0
      vertex 0.395241 81.4187 0
    endloop
  endfacet
  facet normal 0 0 -1
    outer loop
      vertex -0.370125 79.5709 0
      vertex 0.395241 81.4187 0
      vertex 0 79.4973 0
    endloop
  endfacet
  facet normal 0 0 -1
    outer loop
      vertex -0.370125 79.5709 0
      vertex -1.38909 82.6109 0
      vertex 0.395241 81.4187 0
    endloop
  endfacet
  facet normal 0 0 -1
    outer loop
      vertex -2.8033 81.1967 0
      vertex -1.38909 82.6109 0
      vertex -0.370125 79.5709 0
    endloop
  endfacet
  facet normal -0 0 -1
    outer loop
      vertex -1.38909 82.6109 0
      vertex -2.8033 81.1967 0
      vertex -2.58134 84.3952 0
    endloop
  endfacet
  facet normal 0 0 -1
    outer loop
      vertex -4.4291 83.6299 0
      vertex -2.58134 84.3952 0
      vertex -2.8033 81.1967 0
    endloop
  endfacet
  facet normal -0 0 -1
    outer loop
      vertex -2.58134 84.3952 0
      vertex -4.4291 83.6299 0
      vertex -3 86.5 0
    endloop
  endfacet
  facet normal 0 0 -1
    outer loop
      vertex 8 86.5 0
      vertex 10 86.5 0
      vertex 9.4291 83.6299 0
    endloop
  endfacet
  facet normal 0 0 -1
    outer loop
      vertex 10 86.5 0
      vertex 8 86.5 0
      vertex 9.4291 89.3701 0
    endloop
  endfacet
  facet normal 0 0 -1
    outer loop
      vertex 7.58134 84.3952 0
      vertex 9.4291 83.6299 0
      vertex 7.8033 81.1967 0
    endloop
  endfacet
  facet normal 0 0 -1
    outer loop
      vertex 9.4291 83.6299 0
      vertex 7.58134 84.3952 0
      vertex 8 86.5 0
    endloop
  endfacet
  facet normal 0 0 -1
    outer loop
      vertex 7.8033 81.1967 0
      vertex 6.38909 82.6109 0
      vertex 7.58134 84.3952 0
    endloop
  endfacet
  facet normal 0 0 -1
    outer loop
      vertex 5.37012 79.5709 0
      vertex 6.38909 82.6109 0
      vertex 7.8033 81.1967 0
    endloop
  endfacet
  facet normal 0 0 -1
    outer loop
      vertex 4.60476 81.4187 0
      vertex 5.37012 79.5709 0
      vertex 5 79.4973 0
    endloop
  endfacet
  facet normal 0 0 -1
    outer loop
      vertex 5.37012 79.5709 0
      vertex 4.60476 81.4187 0
      vertex 6.38909 82.6109 0
    endloop
  endfacet
  facet normal 0 0 -1
    outer loop
      vertex 7.58134 88.6048 0
      vertex 9.4291 89.3701 0
      vertex 8 86.5 0
    endloop
  endfacet
  facet normal -0 0 -1
    outer loop
      vertex 9.4291 89.3701 0
      vertex 7.58134 88.6048 0
      vertex 7.8033 91.8033 0
    endloop
  endfacet
  facet normal 0 0 -1
    outer loop
      vertex 6.38909 90.3891 0
      vertex 7.8033 91.8033 0
      vertex 7.58134 88.6048 0
    endloop
  endfacet
  facet normal 0 0 -1
    outer loop
      vertex 6.38909 90.3891 0
      vertex 5.37012 93.4291 0
      vertex 7.8033 91.8033 0
    endloop
  endfacet
  facet normal 0 0 -1
    outer loop
      vertex 4.60476 91.5813 0
      vertex 5.37012 93.4291 0
      vertex 6.38909 90.3891 0
    endloop
  endfacet
  facet normal -0 0 -1
    outer loop
      vertex 5.37012 93.4291 0
      vertex 4.60476 91.5813 0
      vertex 5 93.5027 0
    endloop
  endfacet
  facet normal 0 0 -1
    outer loop
      vertex 3.5 91.8011 0
      vertex 5 93.5027 0
      vertex 4.60476 91.5813 0
    endloop
  endfacet
  facet normal 0 0 -1
    outer loop
      vertex 3.5 100 0
      vertex 5 93.5027 0
      vertex 3.5 91.8011 0
    endloop
  endfacet
  facet normal 0 0 -1
    outer loop
      vertex 5 93.5027 0
      vertex 3.5 100 0
      vertex 5 100 0
    endloop
  endfacet
  facet normal 0 0 -1
    outer loop
      vertex 0.395241 91.5813 0
      vertex -0.370125 93.4291 0
      vertex 0 93.5027 0
    endloop
  endfacet
  facet normal 0 0 -1
    outer loop
      vertex -1.38909 90.3891 0
      vertex -0.370125 93.4291 0
      vertex 0.395241 91.5813 0
    endloop
  endfacet
  facet normal 0 0 -1
    outer loop
      vertex -2.8033 91.8033 0
      vertex -1.38909 90.3891 0
      vertex -2.58134 88.6048 0
    endloop
  endfacet
  facet normal 0 0 -1
    outer loop
      vertex -1.38909 90.3891 0
      vertex -2.8033 91.8033 0
      vertex -0.370125 93.4291 0
    endloop
  endfacet
  facet normal 0 0 -1
    outer loop
      vertex -4.4291 89.3701 0
      vertex -2.58134 88.6048 0
      vertex -3 86.5 0
    endloop
  endfacet
  facet normal 0 0 -1
    outer loop
      vertex -5 86.5 0
      vertex -3 86.5 0
      vertex -4.4291 83.6299 0
    endloop
  endfacet
  facet normal 0 0 -1
    outer loop
      vertex -2.58134 88.6048 0
      vertex -4.4291 89.3701 0
      vertex -2.8033 91.8033 0
    endloop
  endfacet
  facet normal 0 0 -1
    outer loop
      vertex -3 86.5 0
      vertex -5 86.5 0
      vertex -4.4291 89.3701 0
    endloop
  endfacet
  facet normal 0 0 -1
    outer loop
      vertex 0 93.5027 0
      vertex 1.5 91.8011 0
      vertex 0.395241 91.5813 0
    endloop
  endfacet
  facet normal 0 0 -1
    outer loop
      vertex 1.5 91.8011 0
      vertex 0 93.5027 0
      vertex 1.5 100 0
    endloop
  endfacet
  facet normal -0 0 -1
    outer loop
      vertex 1.5 100 0
      vertex 0 93.5027 0
      vertex 0 100 0
    endloop
  endfacet
  facet normal 0 -1 0
    outer loop
      vertex 0 0 0
      vertex 5 0 8
      vertex 0 0 8
    endloop
  endfacet
  facet normal 0 -1 -0
    outer loop
      vertex 5 0 8
      vertex 0 0 0
      vertex 5 0 0
    endloop
  endfacet
  facet normal 0.980785 0.19509 0
    outer loop
      vertex 10 86.5 8
      vertex 9.4291 89.3701 0
      vertex 9.4291 89.3701 8
    endloop
  endfacet
  facet normal 0.980785 0.19509 0
    outer loop
      vertex 9.4291 89.3701 0
      vertex 10 86.5 8
      vertex 10 86.5 0
    endloop
  endfacet
  facet normal -0.195094 0.980785 0
    outer loop
      vertex 0 93.5027 0
      vertex -0.370125 93.4291 8
      vertex 0 93.5027 8
    endloop
  endfacet
  facet normal -0.195094 0.980785 0
    outer loop
      vertex -0.370125 93.4291 8
      vertex 0 93.5027 0
      vertex -0.370125 93.4291 0
    endloop
  endfacet
  facet normal 0.555571 -0.831469 0
    outer loop
      vertex 5.37012 79.5709 0
      vertex 7.8033 81.1967 8
      vertex 5.37012 79.5709 8
    endloop
  endfacet
  facet normal 0.555571 -0.831469 0
    outer loop
      vertex 7.8033 81.1967 8
      vertex 5.37012 79.5709 0
      vertex 7.8033 81.1967 0
    endloop
  endfacet
  facet normal 0.55557 0.83147 -0
    outer loop
      vertex 7.8033 91.8033 0
      vertex 5.37012 93.4291 8
      vertex 7.8033 91.8033 8
    endloop
  endfacet
  facet normal 0.55557 0.83147 0
    outer loop
      vertex 5.37012 93.4291 8
      vertex 7.8033 91.8033 0
      vertex 5.37012 93.4291 0
    endloop
  endfacet
  facet normal 0.83147 0.55557 0
    outer loop
      vertex 9.4291 89.3701 8
      vertex 7.8033 91.8033 0
      vertex 7.8033 91.8033 8
    endloop
  endfacet
  facet normal 0.83147 0.55557 0
    outer loop
      vertex 7.8033 91.8033 0
      vertex 9.4291 89.3701 8
      vertex 9.4291 89.3701 0
    endloop
  endfacet
  facet normal 0.195094 0.980785 -0
    outer loop
      vertex 5.37012 93.4291 0
      vertex 5 93.5027 8
      vertex 5.37012 93.4291 8
    endloop
  endfacet
  facet normal 0.195094 0.980785 0
    outer loop
      vertex 5 93.5027 8
      vertex 5.37012 93.4291 0
      vertex 5 93.5027 0
    endloop
  endfacet
  facet normal -0.83147 0.55557 0
    outer loop
      vertex -4.4291 89.3701 0
      vertex -2.8033 91.8033 8
      vertex -2.8033 91.8033 0
    endloop
  endfacet
  facet normal -0.83147 0.55557 0
    outer loop
      vertex -2.8033 91.8033 8
      vertex -4.4291 89.3701 0
      vertex -4.4291 89.3701 8
    endloop
  endfacet
  facet normal -0.980785 0.19509 0
    outer loop
      vertex -5 86.5 0
      vertex -4.4291 89.3701 8
      vertex -4.4291 89.3701 0
    endloop
  endfacet
  facet normal -0.980785 0.19509 0
    outer loop
      vertex -4.4291 89.3701 8
      vertex -5 86.5 0
      vertex -5 86.5 8
    endloop
  endfacet
  facet normal -0.55557 0.83147 0
    outer loop
      vertex -0.370125 93.4291 0
      vertex -2.8033 91.8033 8
      vertex -0.370125 93.4291 8
    endloop
  endfacet
  facet normal -0.55557 0.83147 0
    outer loop
      vertex -2.8033 91.8033 8
      vertex -0.370125 93.4291 0
      vertex -2.8033 91.8033 0
    endloop
  endfacet
  facet normal -0.195074 -0.980789 0
    outer loop
      vertex -0.370125 79.5709 0
      vertex 0 79.4973 8
      vertex -0.370125 79.5709 8
    endloop
  endfacet
  facet normal -0.195074 -0.980789 -0
    outer loop
      vertex 0 79.4973 8
      vertex -0.370125 79.5709 0
      vertex 0 79.4973 0
    endloop
  endfacet
  facet normal -0.83147 -0.55557 0
    outer loop
      vertex -2.8033 81.1967 0
      vertex -4.4291 83.6299 8
      vertex -4.4291 83.6299 0
    endloop
  endfacet
  facet normal -0.83147 -0.55557 0
    outer loop
      vertex -4.4291 83.6299 8
      vertex -2.8033 81.1967 0
      vertex -2.8033 81.1967 8
    endloop
  endfacet
  facet normal -0.980785 -0.19509 0
    outer loop
      vertex -4.4291 83.6299 0
      vertex -5 86.5 8
      vertex -5 86.5 0
    endloop
  endfacet
  facet normal -0.980785 -0.19509 0
    outer loop
      vertex -5 86.5 8
      vertex -4.4291 83.6299 0
      vertex -4.4291 83.6299 8
    endloop
  endfacet
  facet normal 0.83147 -0.55557 0
    outer loop
      vertex 7.8033 81.1967 8
      vertex 9.4291 83.6299 0
      vertex 9.4291 83.6299 8
    endloop
  endfacet
  facet normal 0.83147 -0.55557 0
    outer loop
      vertex 9.4291 83.6299 0
      vertex 7.8033 81.1967 8
      vertex 7.8033 81.1967 0
    endloop
  endfacet
  facet normal 0.195074 -0.980789 0
    outer loop
      vertex 5 79.4973 0
      vertex 5.37012 79.5709 8
      vertex 5 79.4973 8
    endloop
  endfacet
  facet normal 0.195074 -0.980789 0
    outer loop
      vertex 5.37012 79.5709 8
      vertex 5 79.4973 0
      vertex 5.37012 79.5709 0
    endloop
  endfacet
  facet normal -0.555571 -0.831469 0
    outer loop
      vertex -2.8033 81.1967 0
      vertex -0.370125 79.5709 8
      vertex -2.8033 81.1967 8
    endloop
  endfacet
  facet normal -0.555571 -0.831469 -0
    outer loop
      vertex -0.370125 79.5709 8
      vertex -2.8033 81.1967 0
      vertex -0.370125 79.5709 0
    endloop
  endfacet
  facet normal 0.980785 -0.19509 0
    outer loop
      vertex 9.4291 83.6299 8
      vertex 10 86.5 0
      vertex 10 86.5 8
    endloop
  endfacet
  facet normal 0.980785 -0.19509 0
    outer loop
      vertex 10 86.5 0
      vertex 9.4291 83.6299 8
      vertex 9.4291 83.6299 0
    endloop
  endfacet
  facet normal 0 -0.19509 0.980785
    outer loop
      vertex 0 5.38268 3.07612
      vertex 5 5 3
      vertex 5 5.38268 3.07612
    endloop
  endfacet
  facet normal 0 -0.19509 0.980785
    outer loop
      vertex 5 5 3
      vertex 0 5.38268 3.07612
      vertex 0 5 3
    endloop
  endfacet
  facet normal 0 -0.195093 -0.980785
    outer loop
      vertex 0 5 5
      vertex 5 5.38268 4.92388
      vertex 5 5 5
    endloop
  endfacet
  facet normal -0 -0.195093 -0.980785
    outer loop
      vertex 5 5.38268 4.92388
      vertex 0 5 5
      vertex 0 5.38268 4.92388
    endloop
  endfacet
  facet normal -0 0.555569 0.831471
    outer loop
      vertex 0 4.61732 3.07612
      vertex 5 4.29289 3.29289
      vertex 5 4.61732 3.07612
    endloop
  endfacet
  facet normal 0 0.555569 0.831471
    outer loop
      vertex 5 4.29289 3.29289
      vertex 0 4.61732 3.07612
      vertex 0 4.29289 3.29289
    endloop
  endfacet
  facet normal 0 -0.980785 0.195092
    outer loop
      vertex 0 5.92388 3.61732
      vertex 5 6 4
      vertex 0 6 4
    endloop
  endfacet
  facet normal 0 -0.980785 0.195092
    outer loop
      vertex 5 6 4
      vertex 0 5.92388 3.61732
      vertex 5 5.92388 3.61732
    endloop
  endfacet
  facet normal 0 -0.555569 0.831471
    outer loop
      vertex 0 5.70711 3.29289
      vertex 5 5.38268 3.07612
      vertex 5 5.70711 3.29289
    endloop
  endfacet
  facet normal 0 -0.555569 0.831471
    outer loop
      vertex 5 5.38268 3.07612
      vertex 0 5.70711 3.29289
      vertex 0 5.38268 3.07612
    endloop
  endfacet
  facet normal 0 0.980785 -0.19509
    outer loop
      vertex 5 4 4
      vertex 0 4.07612 4.38268
      vertex 5 4.07612 4.38268
    endloop
  endfacet
  facet normal 0 0.980785 -0.19509
    outer loop
      vertex 0 4.07612 4.38268
      vertex 5 4 4
      vertex 0 4 4
    endloop
  endfacet
  facet normal 0 0.555569 -0.831471
    outer loop
      vertex 0 4.29289 4.70711
      vertex 5 4.61732 4.92388
      vertex 5 4.29289 4.70711
    endloop
  endfacet
  facet normal 0 0.555569 -0.831471
    outer loop
      vertex 5 4.61732 4.92388
      vertex 0 4.29289 4.70711
      vertex 0 4.61732 4.92388
    endloop
  endfacet
  facet normal 0 -0.831471 0.555569
    outer loop
      vertex 0 5.70711 3.29289
      vertex 5 5.92388 3.61732
      vertex 0 5.92388 3.61732
    endloop
  endfacet
  facet normal 0 -0.831471 0.555569
    outer loop
      vertex 5 5.92388 3.61732
      vertex 0 5.70711 3.29289
      vertex 5 5.70711 3.29289
    endloop
  endfacet
  facet normal 0 -0.831471 -0.555569
    outer loop
      vertex 0 5.92388 4.38268
      vertex 5 5.70711 4.70711
      vertex 0 5.70711 4.70711
    endloop
  endfacet
  facet normal 0 -0.831471 -0.555569
    outer loop
      vertex 5 5.70711 4.70711
      vertex 0 5.92388 4.38268
      vertex 5 5.92388 4.38268
    endloop
  endfacet
  facet normal 0 -0.555569 -0.831471
    outer loop
      vertex 0 5.38268 4.92388
      vertex 5 5.70711 4.70711
      vertex 5 5.38268 4.92388
    endloop
  endfacet
  facet normal -0 -0.555569 -0.831471
    outer loop
      vertex 5 5.70711 4.70711
      vertex 0 5.38268 4.92388
      vertex 0 5.70711 4.70711
    endloop
  endfacet
  facet normal 0 -0.980785 -0.195093
    outer loop
      vertex 0 6 4
      vertex 5 5.92388 4.38268
      vertex 0 5.92388 4.38268
    endloop
  endfacet
  facet normal 0 -0.980785 -0.195093
    outer loop
      vertex 5 5.92388 4.38268
      vertex 0 6 4
      vertex 5 6 4
    endloop
  endfacet
  facet normal 0 0.980785 0.19509
    outer loop
      vertex 5 4.07612 3.61732
      vertex 0 4 4
      vertex 5 4 4
    endloop
  endfacet
  facet normal 0 0.980785 0.19509
    outer loop
      vertex 0 4 4
      vertex 5 4.07612 3.61732
      vertex 0 4.07612 3.61732
    endloop
  endfacet
  facet normal 0 0.831471 -0.555569
    outer loop
      vertex 5 4.07612 4.38268
      vertex 0 4.29289 4.70711
      vertex 5 4.29289 4.70711
    endloop
  endfacet
  facet normal 0 0.831471 -0.555569
    outer loop
      vertex 0 4.29289 4.70711
      vertex 5 4.07612 4.38268
      vertex 0 4.07612 4.38268
    endloop
  endfacet
  facet normal 0 0.195092 -0.980785
    outer loop
      vertex 0 4.61732 4.92388
      vertex 5 5 5
      vertex 5 4.61732 4.92388
    endloop
  endfacet
  facet normal 0 0.195092 -0.980785
    outer loop
      vertex 5 5 5
      vertex 0 4.61732 4.92388
      vertex 0 5 5
    endloop
  endfacet
  facet normal -0 0.19509 0.980785
    outer loop
      vertex 0 5 3
      vertex 5 4.61732 3.07612
      vertex 5 5 3
    endloop
  endfacet
  facet normal 0 0.19509 0.980785
    outer loop
      vertex 5 4.61732 3.07612
      vertex 0 5 3
      vertex 0 4.61732 3.07612
    endloop
  endfacet
  facet normal 0 0.831471 0.555569
    outer loop
      vertex 5 4.29289 3.29289
      vertex 0 4.07612 3.61732
      vertex 5 4.07612 3.61732
    endloop
  endfacet
  facet normal 0 0.831471 0.555569
    outer loop
      vertex 0 4.07612 3.61732
      vertex 5 4.29289 3.29289
      vertex 0 4.29289 3.29289
    endloop
  endfacet
  facet normal 0 -0.19509 0.980785
    outer loop
      vertex 0 13.3827 3.07612
      vertex 5 13 3
      vertex 5 13.3827 3.07612
    endloop
  endfacet
  facet normal 0 -0.19509 0.980785
    outer loop
      vertex 5 13 3
      vertex 0 13.3827 3.07612
      vertex 0 13 3
    endloop
  endfacet
  facet normal 0 -0.195093 -0.980785
    outer loop
      vertex 0 13 5
      vertex 5 13.3827 4.92388
      vertex 5 13 5
    endloop
  endfacet
  facet normal -0 -0.195093 -0.980785
    outer loop
      vertex 5 13.3827 4.92388
      vertex 0 13 5
      vertex 0 13.3827 4.92388
    endloop
  endfacet
  facet normal -0 0.555569 0.831471
    outer loop
      vertex 0 12.6173 3.07612
      vertex 5 12.2929 3.29289
      vertex 5 12.6173 3.07612
    endloop
  endfacet
  facet normal 0 0.555569 0.831471
    outer loop
      vertex 5 12.2929 3.29289
      vertex 0 12.6173 3.07612
      vertex 0 12.2929 3.29289
    endloop
  endfacet
  facet normal 0 -0.980785 0.195092
    outer loop
      vertex 0 13.9239 3.61732
      vertex 5 14 4
      vertex 0 14 4
    endloop
  endfacet
  facet normal 0 -0.980785 0.195092
    outer loop
      vertex 5 14 4
      vertex 0 13.9239 3.61732
      vertex 5 13.9239 3.61732
    endloop
  endfacet
  facet normal 0 -0.555569 0.831471
    outer loop
      vertex 0 13.7071 3.29289
      vertex 5 13.3827 3.07612
      vertex 5 13.7071 3.29289
    endloop
  endfacet
  facet normal 0 -0.555569 0.831471
    outer loop
      vertex 5 13.3827 3.07612
      vertex 0 13.7071 3.29289
      vertex 0 13.3827 3.07612
    endloop
  endfacet
  facet normal 0 0.980785 -0.19509
    outer loop
      vertex 5 12 4
      vertex 0 12.0761 4.38268
      vertex 5 12.0761 4.38268
    endloop
  endfacet
  facet normal 0 0.980785 -0.19509
    outer loop
      vertex 0 12.0761 4.38268
      vertex 5 12 4
      vertex 0 12 4
    endloop
  endfacet
  facet normal 0 0.555569 -0.831471
    outer loop
      vertex 0 12.2929 4.70711
      vertex 5 12.6173 4.92388
      vertex 5 12.2929 4.70711
    endloop
  endfacet
  facet normal 0 0.555569 -0.831471
    outer loop
      vertex 5 12.6173 4.92388
      vertex 0 12.2929 4.70711
      vertex 0 12.6173 4.92388
    endloop
  endfacet
  facet normal 0 -0.831471 0.555569
    outer loop
      vertex 0 13.7071 3.29289
      vertex 5 13.9239 3.61732
      vertex 0 13.9239 3.61732
    endloop
  endfacet
  facet normal 0 -0.831471 0.555569
    outer loop
      vertex 5 13.9239 3.61732
      vertex 0 13.7071 3.29289
      vertex 5 13.7071 3.29289
    endloop
  endfacet
  facet normal 0 -0.831471 -0.555569
    outer loop
      vertex 0 13.9239 4.38268
      vertex 5 13.7071 4.70711
      vertex 0 13.7071 4.70711
    endloop
  endfacet
  facet normal 0 -0.831471 -0.555569
    outer loop
      vertex 5 13.7071 4.70711
      vertex 0 13.9239 4.38268
      vertex 5 13.9239 4.38268
    endloop
  endfacet
  facet normal 0 -0.555569 -0.831471
    outer loop
      vertex 0 13.3827 4.92388
      vertex 5 13.7071 4.70711
      vertex 5 13.3827 4.92388
    endloop
  endfacet
  facet normal -0 -0.555569 -0.831471
    outer loop
      vertex 5 13.7071 4.70711
      vertex 0 13.3827 4.92388
      vertex 0 13.7071 4.70711
    endloop
  endfacet
  facet normal 0 -0.980785 -0.195093
    outer loop
      vertex 0 14 4
      vertex 5 13.9239 4.38268
      vertex 0 13.9239 4.38268
    endloop
  endfacet
  facet normal 0 -0.980785 -0.195093
    outer loop
      vertex 5 13.9239 4.38268
      vertex 0 14 4
      vertex 5 14 4
    endloop
  endfacet
  facet normal 0 0.980785 0.19509
    outer loop
      vertex 5 12.0761 3.61732
      vertex 0 12 4
      vertex 5 12 4
    endloop
  endfacet
  facet normal 0 0.980785 0.19509
    outer loop
      vertex 0 12 4
      vertex 5 12.0761 3.61732
      vertex 0 12.0761 3.61732
    endloop
  endfacet
  facet normal 0 0.831471 -0.555569
    outer loop
      vertex 5 12.0761 4.38268
      vertex 0 12.2929 4.70711
      vertex 5 12.2929 4.70711
    endloop
  endfacet
  facet normal 0 0.831471 -0.555569
    outer loop
      vertex 0 12.2929 4.70711
      vertex 5 12.0761 4.38268
      vertex 0 12.0761 4.38268
    endloop
  endfacet
  facet normal 0 0.195092 -0.980785
    outer loop
      vertex 0 12.6173 4.92388
      vertex 5 13 5
      vertex 5 12.6173 4.92388
    endloop
  endfacet
  facet normal 0 0.195092 -0.980785
    outer loop
      vertex 5 13 5
      vertex 0 12.6173 4.92388
      vertex 0 13 5
    endloop
  endfacet
  facet normal -0 0.19509 0.980785
    outer loop
      vertex 0 13 3
      vertex 5 12.6173 3.07612
      vertex 5 13 3
    endloop
  endfacet
  facet normal 0 0.19509 0.980785
    outer loop
      vertex 5 12.6173 3.07612
      vertex 0 13 3
      vertex 0 12.6173 3.07612
    endloop
  endfacet
  facet normal 0 0.831471 0.555569
    outer loop
      vertex 5 12.2929 3.29289
      vertex 0 12.0761 3.61732
      vertex 5 12.0761 3.61732
    endloop
  endfacet
  facet normal 0 0.831471 0.555569
    outer loop
      vertex 0 12.0761 3.61732
      vertex 5 12.2929 3.29289
      vertex 0 12.2929 3.29289
    endloop
  endfacet
  facet normal -0.980785 -0.19509 0
    outer loop
      vertex 8 86.5 0
      vertex 7.58134 88.6048 8
      vertex 7.58134 88.6048 0
    endloop
  endfacet
  facet normal -0.980785 -0.19509 0
    outer loop
      vertex 7.58134 88.6048 8
      vertex 8 86.5 0
      vertex 8 86.5 8
    endloop
  endfacet
  facet normal 0.19509 -0.980785 0
    outer loop
      vertex 0.395241 91.5813 0
      vertex 1.5 91.8011 8
      vertex 0.395241 91.5813 8
    endloop
  endfacet
  facet normal 0.19509 -0.980785 0
    outer loop
      vertex 1.5 91.8011 8
      vertex 0.395241 91.5813 0
      vertex 1.5 91.8011 0
    endloop
  endfacet
  facet normal -0.19509 0.980785 0
    outer loop
      vertex 4.60476 81.4187 0
      vertex 2.5 81 8
      vertex 4.60476 81.4187 8
    endloop
  endfacet
  facet normal -0.19509 0.980785 0
    outer loop
      vertex 2.5 81 8
      vertex 4.60476 81.4187 0
      vertex 2.5 81 0
    endloop
  endfacet
  facet normal -0.555571 -0.831469 0
    outer loop
      vertex 4.60476 91.5813 0
      vertex 6.38909 90.3891 8
      vertex 4.60476 91.5813 8
    endloop
  endfacet
  facet normal -0.555571 -0.831469 -0
    outer loop
      vertex 6.38909 90.3891 8
      vertex 4.60476 91.5813 0
      vertex 6.38909 90.3891 0
    endloop
  endfacet
  facet normal -0.831469 -0.555571 0
    outer loop
      vertex 7.58134 88.6048 0
      vertex 6.38909 90.3891 8
      vertex 6.38909 90.3891 0
    endloop
  endfacet
  facet normal -0.831469 -0.555571 0
    outer loop
      vertex 6.38909 90.3891 8
      vertex 7.58134 88.6048 0
      vertex 7.58134 88.6048 8
    endloop
  endfacet
  facet normal -0.19509 -0.980785 0
    outer loop
      vertex 3.5 91.8011 0
      vertex 4.60476 91.5813 8
      vertex 3.5 91.8011 8
    endloop
  endfacet
  facet normal -0.19509 -0.980785 -0
    outer loop
      vertex 4.60476 91.5813 8
      vertex 3.5 91.8011 0
      vertex 4.60476 91.5813 0
    endloop
  endfacet
  facet normal 0.831469 -0.555571 0
    outer loop
      vertex -2.58134 88.6048 8
      vertex -1.38909 90.3891 0
      vertex -1.38909 90.3891 8
    endloop
  endfacet
  facet normal 0.831469 -0.555571 0
    outer loop
      vertex -1.38909 90.3891 0
      vertex -2.58134 88.6048 8
      vertex -2.58134 88.6048 0
    endloop
  endfacet
  facet normal 0.980785 -0.19509 0
    outer loop
      vertex -3 86.5 8
      vertex -2.58134 88.6048 0
      vertex -2.58134 88.6048 8
    endloop
  endfacet
  facet normal 0.980785 -0.19509 0
    outer loop
      vertex -2.58134 88.6048 0
      vertex -3 86.5 8
      vertex -3 86.5 0
    endloop
  endfacet
  facet normal 0.555571 -0.831469 0
    outer loop
      vertex -1.38909 90.3891 0
      vertex 0.395241 91.5813 8
      vertex -1.38909 90.3891 8
    endloop
  endfacet
  facet normal 0.555571 -0.831469 0
    outer loop
      vertex 0.395241 91.5813 8
      vertex -1.38909 90.3891 0
      vertex 0.395241 91.5813 0
    endloop
  endfacet
  facet normal -0.980785 0.19509 0
    outer loop
      vertex 7.58134 84.3952 0
      vertex 8 86.5 8
      vertex 8 86.5 0
    endloop
  endfacet
  facet normal -0.980785 0.19509 0
    outer loop
      vertex 8 86.5 8
      vertex 7.58134 84.3952 0
      vertex 7.58134 84.3952 8
    endloop
  endfacet
  facet normal 0.195091 0.980785 -0
    outer loop
      vertex 2.5 81 0
      vertex 0.395241 81.4187 8
      vertex 2.5 81 8
    endloop
  endfacet
  facet normal 0.195091 0.980785 0
    outer loop
      vertex 0.395241 81.4187 8
      vertex 2.5 81 0
      vertex 0.395241 81.4187 0
    endloop
  endfacet
  facet normal 0.831469 0.555571 0
    outer loop
      vertex -1.38909 82.6109 8
      vertex -2.58134 84.3952 0
      vertex -2.58134 84.3952 8
    endloop
  endfacet
  facet normal 0.831469 0.555571 0
    outer loop
      vertex -2.58134 84.3952 0
      vertex -1.38909 82.6109 8
      vertex -1.38909 82.6109 0
    endloop
  endfacet
  facet normal 0.980785 0.19509 0
    outer loop
      vertex -2.58134 84.3952 8
      vertex -3 86.5 0
      vertex -3 86.5 8
    endloop
  endfacet
  facet normal 0.980785 0.19509 0
    outer loop
      vertex -3 86.5 0
      vertex -2.58134 84.3952 8
      vertex -2.58134 84.3952 0
    endloop
  endfacet
  facet normal -0.831469 0.555571 0
    outer loop
      vertex 6.38909 82.6109 0
      vertex 7.58134 84.3952 8
      vertex 7.58134 84.3952 0
    endloop
  endfacet
  facet normal -0.831469 0.555571 0
    outer loop
      vertex 7.58134 84.3952 8
      vertex 6.38909 82.6109 0
      vertex 6.38909 82.6109 8
    endloop
  endfacet
  facet normal -0.555571 0.831469 0
    outer loop
      vertex 6.38909 82.6109 0
      vertex 4.60476 81.4187 8
      vertex 6.38909 82.6109 8
    endloop
  endfacet
  facet normal -0.555571 0.831469 0
    outer loop
      vertex 4.60476 81.4187 8
      vertex 6.38909 82.6109 0
      vertex 4.60476 81.4187 0
    endloop
  endfacet
  facet normal 0.555571 0.831469 -0
    outer loop
      vertex 0.395241 81.4187 0
      vertex -1.38909 82.6109 8
      vertex 0.395241 81.4187 8
    endloop
  endfacet
  facet normal 0.555571 0.831469 0
    outer loop
      vertex -1.38909 82.6109 8
      vertex 0.395241 81.4187 0
      vertex -1.38909 82.6109 0
    endloop
  endfacet
  facet normal 0 -0.19509 0.980785
    outer loop
      vertex 0 97.3827 3.07612
      vertex 1.5 97 3
      vertex 1.5 97.3827 3.07612
    endloop
  endfacet
  facet normal 0 -0.19509 0.980785
    outer loop
      vertex 1.5 97 3
      vertex 0 97.3827 3.07612
      vertex 0 97 3
    endloop
  endfacet
  facet normal 0 -0.19509 0.980785
    outer loop
      vertex 3.5 97.3827 3.07612
      vertex 5 97 3
      vertex 5 97.3827 3.07612
    endloop
  endfacet
  facet normal 0 -0.19509 0.980785
    outer loop
      vertex 5 97 3
      vertex 3.5 97.3827 3.07612
      vertex 3.5 97 3
    endloop
  endfacet
  facet normal 0 -0.195093 -0.980785
    outer loop
      vertex 0 97 5
      vertex 1.5 97.3827 4.92388
      vertex 1.5 97 5
    endloop
  endfacet
  facet normal -0 -0.195093 -0.980785
    outer loop
      vertex 1.5 97.3827 4.92388
      vertex 0 97 5
      vertex 0 97.3827 4.92388
    endloop
  endfacet
  facet normal 0 -0.195093 -0.980785
    outer loop
      vertex 3.5 97 5
      vertex 5 97.3827 4.92388
      vertex 5 97 5
    endloop
  endfacet
  facet normal -0 -0.195093 -0.980785
    outer loop
      vertex 5 97.3827 4.92388
      vertex 3.5 97 5
      vertex 3.5 97.3827 4.92388
    endloop
  endfacet
  facet normal -0 0.555567 0.831472
    outer loop
      vertex 0 96.6173 3.07612
      vertex 1.5 96.2929 3.29289
      vertex 1.5 96.6173 3.07612
    endloop
  endfacet
  facet normal 0 0.555567 0.831472
    outer loop
      vertex 1.5 96.2929 3.29289
      vertex 0 96.6173 3.07612
      vertex 0 96.2929 3.29289
    endloop
  endfacet
  facet normal -0 0.555567 0.831472
    outer loop
      vertex 3.5 96.6173 3.07612
      vertex 5 96.2929 3.29289
      vertex 5 96.6173 3.07612
    endloop
  endfacet
  facet normal 0 0.555567 0.831472
    outer loop
      vertex 5 96.2929 3.29289
      vertex 3.5 96.6173 3.07612
      vertex 3.5 96.2929 3.29289
    endloop
  endfacet
  facet normal 0 -0.980786 0.195085
    outer loop
      vertex 0 97.9239 3.61732
      vertex 1.5 98 4
      vertex 0 98 4
    endloop
  endfacet
  facet normal 0 -0.980786 0.195085
    outer loop
      vertex 1.5 98 4
      vertex 0 97.9239 3.61732
      vertex 1.5 97.9239 3.61732
    endloop
  endfacet
  facet normal 0 -0.980786 0.195085
    outer loop
      vertex 3.5 97.9239 3.61732
      vertex 5 98 4
      vertex 3.5 98 4
    endloop
  endfacet
  facet normal 0 -0.980786 0.195085
    outer loop
      vertex 5 98 4
      vertex 3.5 97.9239 3.61732
      vertex 5 97.9239 3.61732
    endloop
  endfacet
  facet normal 0 -0.555567 0.831472
    outer loop
      vertex 0 97.7071 3.29289
      vertex 1.5 97.3827 3.07612
      vertex 1.5 97.7071 3.29289
    endloop
  endfacet
  facet normal 0 -0.555567 0.831472
    outer loop
      vertex 1.5 97.3827 3.07612
      vertex 0 97.7071 3.29289
      vertex 0 97.3827 3.07612
    endloop
  endfacet
  facet normal 0 -0.555567 0.831472
    outer loop
      vertex 3.5 97.7071 3.29289
      vertex 5 97.3827 3.07612
      vertex 5 97.7071 3.29289
    endloop
  endfacet
  facet normal 0 -0.555567 0.831472
    outer loop
      vertex 5 97.3827 3.07612
      vertex 3.5 97.7071 3.29289
      vertex 3.5 97.3827 3.07612
    endloop
  endfacet
  facet normal 0 0.980786 -0.195086
    outer loop
      vertex 1.5 96 4
      vertex 0 96.0761 4.38268
      vertex 1.5 96.0761 4.38268
    endloop
  endfacet
  facet normal 0 0.980786 -0.195086
    outer loop
      vertex 0 96.0761 4.38268
      vertex 1.5 96 4
      vertex 0 96 4
    endloop
  endfacet
  facet normal 0 0.980786 -0.195086
    outer loop
      vertex 5 96 4
      vertex 3.5 96.0761 4.38268
      vertex 5 96.0761 4.38268
    endloop
  endfacet
  facet normal 0 0.980786 -0.195086
    outer loop
      vertex 3.5 96.0761 4.38268
      vertex 5 96 4
      vertex 3.5 96 4
    endloop
  endfacet
  facet normal 0 0.555567 -0.831472
    outer loop
      vertex 0 96.2929 4.70711
      vertex 1.5 96.6173 4.92388
      vertex 1.5 96.2929 4.70711
    endloop
  endfacet
  facet normal 0 0.555567 -0.831472
    outer loop
      vertex 1.5 96.6173 4.92388
      vertex 0 96.2929 4.70711
      vertex 0 96.6173 4.92388
    endloop
  endfacet
  facet normal 0 0.555567 -0.831472
    outer loop
      vertex 3.5 96.2929 4.70711
      vertex 5 96.6173 4.92388
      vertex 5 96.2929 4.70711
    endloop
  endfacet
  facet normal 0 0.555567 -0.831472
    outer loop
      vertex 5 96.6173 4.92388
      vertex 3.5 96.2929 4.70711
      vertex 3.5 96.6173 4.92388
    endloop
  endfacet
  facet normal 0 -0.831468 0.555572
    outer loop
      vertex 0 97.7071 3.29289
      vertex 1.5 97.9239 3.61732
      vertex 0 97.9239 3.61732
    endloop
  endfacet
  facet normal 0 -0.831468 0.555572
    outer loop
      vertex 1.5 97.9239 3.61732
      vertex 0 97.7071 3.29289
      vertex 1.5 97.7071 3.29289
    endloop
  endfacet
  facet normal 0 -0.831468 0.555572
    outer loop
      vertex 3.5 97.7071 3.29289
      vertex 5 97.9239 3.61732
      vertex 3.5 97.9239 3.61732
    endloop
  endfacet
  facet normal 0 -0.831468 0.555572
    outer loop
      vertex 5 97.9239 3.61732
      vertex 3.5 97.7071 3.29289
      vertex 5 97.7071 3.29289
    endloop
  endfacet
  facet normal 0 -0.831468 -0.555572
    outer loop
      vertex 0 97.9239 4.38268
      vertex 1.5 97.7071 4.70711
      vertex 0 97.7071 4.70711
    endloop
  endfacet
  facet normal 0 -0.831468 -0.555572
    outer loop
      vertex 1.5 97.7071 4.70711
      vertex 0 97.9239 4.38268
      vertex 1.5 97.9239 4.38268
    endloop
  endfacet
  facet normal 0 -0.831468 -0.555572
    outer loop
      vertex 3.5 97.9239 4.38268
      vertex 5 97.7071 4.70711
      vertex 3.5 97.7071 4.70711
    endloop
  endfacet
  facet normal 0 -0.831468 -0.555572
    outer loop
      vertex 5 97.7071 4.70711
      vertex 3.5 97.9239 4.38268
      vertex 5 97.9239 4.38268
    endloop
  endfacet
  facet normal 0 -0.555567 -0.831472
    outer loop
      vertex 0 97.3827 4.92388
      vertex 1.5 97.7071 4.70711
      vertex 1.5 97.3827 4.92388
    endloop
  endfacet
  facet normal -0 -0.555567 -0.831472
    outer loop
      vertex 1.5 97.7071 4.70711
      vertex 0 97.3827 4.92388
      vertex 0 97.7071 4.70711
    endloop
  endfacet
  facet normal 0 -0.555567 -0.831472
    outer loop
      vertex 3.5 97.3827 4.92388
      vertex 5 97.7071 4.70711
      vertex 5 97.3827 4.92388
    endloop
  endfacet
  facet normal -0 -0.555567 -0.831472
    outer loop
      vertex 5 97.7071 4.70711
      vertex 3.5 97.3827 4.92388
      vertex 3.5 97.7071 4.70711
    endloop
  endfacet
  facet normal 0 -0.980786 -0.195086
    outer loop
      vertex 0 98 4
      vertex 1.5 97.9239 4.38268
      vertex 0 97.9239 4.38268
    endloop
  endfacet
  facet normal 0 -0.980786 -0.195086
    outer loop
      vertex 1.5 97.9239 4.38268
      vertex 0 98 4
      vertex 1.5 98 4
    endloop
  endfacet
  facet normal 0 -0.980786 -0.195086
    outer loop
      vertex 3.5 98 4
      vertex 5 97.9239 4.38268
      vertex 3.5 97.9239 4.38268
    endloop
  endfacet
  facet normal 0 -0.980786 -0.195086
    outer loop
      vertex 5 97.9239 4.38268
      vertex 3.5 98 4
      vertex 5 98 4
    endloop
  endfacet
  facet normal 0 0.980786 0.195085
    outer loop
      vertex 1.5 96.0761 3.61732
      vertex 0 96 4
      vertex 1.5 96 4
    endloop
  endfacet
  facet normal 0 0.980786 0.195085
    outer loop
      vertex 0 96 4
      vertex 1.5 96.0761 3.61732
      vertex 0 96.0761 3.61732
    endloop
  endfacet
  facet normal 0 0.980786 0.195085
    outer loop
      vertex 5 96.0761 3.61732
      vertex 3.5 96 4
      vertex 5 96 4
    endloop
  endfacet
  facet normal 0 0.980786 0.195085
    outer loop
      vertex 3.5 96 4
      vertex 5 96.0761 3.61732
      vertex 3.5 96.0761 3.61732
    endloop
  endfacet
  facet normal 0 0.831468 -0.555572
    outer loop
      vertex 1.5 96.0761 4.38268
      vertex 0 96.2929 4.70711
      vertex 1.5 96.2929 4.70711
    endloop
  endfacet
  facet normal 0 0.831468 -0.555572
    outer loop
      vertex 0 96.2929 4.70711
      vertex 1.5 96.0761 4.38268
      vertex 0 96.0761 4.38268
    endloop
  endfacet
  facet normal 0 0.831468 -0.555572
    outer loop
      vertex 5 96.0761 4.38268
      vertex 3.5 96.2929 4.70711
      vertex 5 96.2929 4.70711
    endloop
  endfacet
  facet normal 0 0.831468 -0.555572
    outer loop
      vertex 3.5 96.2929 4.70711
      vertex 5 96.0761 4.38268
      vertex 3.5 96.0761 4.38268
    endloop
  endfacet
  facet normal 0 0.195093 -0.980785
    outer loop
      vertex 0 96.6173 4.92388
      vertex 1.5 97 5
      vertex 1.5 96.6173 4.92388
    endloop
  endfacet
  facet normal 0 0.195093 -0.980785
    outer loop
      vertex 1.5 97 5
      vertex 0 96.6173 4.92388
      vertex 0 97 5
    endloop
  endfacet
  facet normal 0 0.195093 -0.980785
    outer loop
      vertex 3.5 96.6173 4.92388
      vertex 5 97 5
      vertex 5 96.6173 4.92388
    endloop
  endfacet
  facet normal 0 0.195093 -0.980785
    outer loop
      vertex 5 97 5
      vertex 3.5 96.6173 4.92388
      vertex 3.5 97 5
    endloop
  endfacet
  facet normal 0 0.831468 0.555572
    outer loop
      vertex 1.5 96.2929 3.29289
      vertex 0 96.0761 3.61732
      vertex 1.5 96.0761 3.61732
    endloop
  endfacet
  facet normal 0 0.831468 0.555572
    outer loop
      vertex 0 96.0761 3.61732
      vertex 1.5 96.2929 3.29289
      vertex 0 96.2929 3.29289
    endloop
  endfacet
  facet normal 0 0.831468 0.555572
    outer loop
      vertex 5 96.2929 3.29289
      vertex 3.5 96.0761 3.61732
      vertex 5 96.0761 3.61732
    endloop
  endfacet
  facet normal 0 0.831468 0.555572
    outer loop
      vertex 3.5 96.0761 3.61732
      vertex 5 96.2929 3.29289
      vertex 3.5 96.2929 3.29289
    endloop
  endfacet
  facet normal -0 0.19509 0.980785
    outer loop
      vertex 0 97 3
      vertex 1.5 96.6173 3.07612
      vertex 1.5 97 3
    endloop
  endfacet
  facet normal 0 0.19509 0.980785
    outer loop
      vertex 1.5 96.6173 3.07612
      vertex 0 97 3
      vertex 0 96.6173 3.07612
    endloop
  endfacet
  facet normal -0 0.19509 0.980785
    outer loop
      vertex 3.5 97 3
      vertex 5 96.6173 3.07612
      vertex 5 97 3
    endloop
  endfacet
  facet normal 0 0.19509 0.980785
    outer loop
      vertex 5 96.6173 3.07612
      vertex 3.5 97 3
      vertex 3.5 96.6173 3.07612
    endloop
  endfacet
  facet normal 1 0 0
    outer loop
      vertex 1.5 100 8
      vertex 1.5 98 4
      vertex 1.5 100 0
    endloop
  endfacet
  facet normal 1 0 0
    outer loop
      vertex 1.5 100 8
      vertex 1.5 97.9239 4.38268
      vertex 1.5 98 4
    endloop
  endfacet
  facet normal 1 0 0
    outer loop
      vertex 1.5 100 8
      vertex 1.5 97.7071 4.70711
      vertex 1.5 97.9239 4.38268
    endloop
  endfacet
  facet normal 1 0 0
    outer loop
      vertex 1.5 100 8
      vertex 1.5 97.3827 4.92388
      vertex 1.5 97.7071 4.70711
    endloop
  endfacet
  facet normal 1 0 0
    outer loop
      vertex 1.5 100 8
      vertex 1.5 97 5
      vertex 1.5 97.3827 4.92388
    endloop
  endfacet
  facet normal 1 0 0
    outer loop
      vertex 1.5 100 8
      vertex 1.5 96.6173 4.92388
      vertex 1.5 97 5
    endloop
  endfacet
  facet normal 1 -0 0
    outer loop
      vertex 1.5 91.8011 8
      vertex 1.5 96.6173 4.92388
      vertex 1.5 100 8
    endloop
  endfacet
  facet normal 1 0 0
    outer loop
      vertex 1.5 96.0761 4.38268
      vertex 1.5 91.8011 8
      vertex 1.5 96 4
    endloop
  endfacet
  facet normal 1 0 0
    outer loop
      vertex 1.5 96.2929 4.70711
      vertex 1.5 91.8011 8
      vertex 1.5 96.0761 4.38268
    endloop
  endfacet
  facet normal 1 0 0
    outer loop
      vertex 1.5 96.6173 4.92388
      vertex 1.5 91.8011 8
      vertex 1.5 96.2929 4.70711
    endloop
  endfacet
  facet normal 1 -0 0
    outer loop
      vertex 1.5 97.9239 3.61732
      vertex 1.5 100 0
      vertex 1.5 98 4
    endloop
  endfacet
  facet normal 1 -0 0
    outer loop
      vertex 1.5 97.7071 3.29289
      vertex 1.5 100 0
      vertex 1.5 97.9239 3.61732
    endloop
  endfacet
  facet normal 1 -0 0
    outer loop
      vertex 1.5 97.3827 3.07612
      vertex 1.5 100 0
      vertex 1.5 97.7071 3.29289
    endloop
  endfacet
  facet normal 1 -0 0
    outer loop
      vertex 1.5 97 3
      vertex 1.5 100 0
      vertex 1.5 97.3827 3.07612
    endloop
  endfacet
  facet normal 1 0 0
    outer loop
      vertex 1.5 96.6173 3.07612
      vertex 1.5 100 0
      vertex 1.5 97 3
    endloop
  endfacet
  facet normal 1 0 0
    outer loop
      vertex 1.5 91.8011 0
      vertex 1.5 96.6173 3.07612
      vertex 1.5 96.2929 3.29289
    endloop
  endfacet
  facet normal 1 0 0
    outer loop
      vertex 1.5 91.8011 0
      vertex 1.5 96 4
      vertex 1.5 91.8011 8
    endloop
  endfacet
  facet normal 1 0 0
    outer loop
      vertex 1.5 96 4
      vertex 1.5 91.8011 0
      vertex 1.5 96.0761 3.61732
    endloop
  endfacet
  facet normal 1 0 0
    outer loop
      vertex 1.5 96.6173 3.07612
      vertex 1.5 91.8011 0
      vertex 1.5 100 0
    endloop
  endfacet
  facet normal 1 0 0
    outer loop
      vertex 1.5 96.0761 3.61732
      vertex 1.5 91.8011 0
      vertex 1.5 96.2929 3.29289
    endloop
  endfacet
  facet normal -1 0 0
    outer loop
      vertex 3.5 100 0
      vertex 3.5 98 4
      vertex 3.5 100 8
    endloop
  endfacet
  facet normal -1 0 0
    outer loop
      vertex 3.5 100 0
      vertex 3.5 97.9239 3.61732
      vertex 3.5 98 4
    endloop
  endfacet
  facet normal -1 0 0
    outer loop
      vertex 3.5 100 0
      vertex 3.5 97.7071 3.29289
      vertex 3.5 97.9239 3.61732
    endloop
  endfacet
  facet normal -1 0 0
    outer loop
      vertex 3.5 100 0
      vertex 3.5 97.3827 3.07612
      vertex 3.5 97.7071 3.29289
    endloop
  endfacet
  facet normal -1 0 0
    outer loop
      vertex 3.5 100 0
      vertex 3.5 97 3
      vertex 3.5 97.3827 3.07612
    endloop
  endfacet
  facet normal -1 0 0
    outer loop
      vertex 3.5 100 0
      vertex 3.5 96.6173 3.07612
      vertex 3.5 97 3
    endloop
  endfacet
  facet normal -1 0 0
    outer loop
      vertex 3.5 91.8011 0
      vertex 3.5 96.6173 3.07612
      vertex 3.5 100 0
    endloop
  endfacet
  facet normal -1 -0 0
    outer loop
      vertex 3.5 96.0761 3.61732
      vertex 3.5 91.8011 0
      vertex 3.5 96 4
    endloop
  endfacet
  facet normal -1 -0 0
    outer loop
      vertex 3.5 96.2929 3.29289
      vertex 3.5 91.8011 0
      vertex 3.5 96.0761 3.61732
    endloop
  endfacet
  facet normal -1 -0 0
    outer loop
      vertex 3.5 96.6173 3.07612
      vertex 3.5 91.8011 0
      vertex 3.5 96.2929 3.29289
    endloop
  endfacet
  facet normal -1 0 0
    outer loop
      vertex 3.5 97.9239 4.38268
      vertex 3.5 100 8
      vertex 3.5 98 4
    endloop
  endfacet
  facet normal -1 0 0
    outer loop
      vertex 3.5 97.7071 4.70711
      vertex 3.5 100 8
      vertex 3.5 97.9239 4.38268
    endloop
  endfacet
  facet normal -1 0 0
    outer loop
      vertex 3.5 97.3827 4.92388
      vertex 3.5 100 8
      vertex 3.5 97.7071 4.70711
    endloop
  endfacet
  facet normal -1 0 0
    outer loop
      vertex 3.5 97 5
      vertex 3.5 100 8
      vertex 3.5 97.3827 4.92388
    endloop
  endfacet
  facet normal -1 0 0
    outer loop
      vertex 3.5 96.6173 4.92388
      vertex 3.5 100 8
      vertex 3.5 97 5
    endloop
  endfacet
  facet normal -1 0 0
    outer loop
      vertex 3.5 91.8011 8
      vertex 3.5 96.6173 4.92388
      vertex 3.5 96.2929 4.70711
    endloop
  endfacet
  facet normal -1 0 0
    outer loop
      vertex 3.5 91.8011 8
      vertex 3.5 96 4
      vertex 3.5 91.8011 0
    endloop
  endfacet
  facet normal -1 0 0
    outer loop
      vertex 3.5 96 4
      vertex 3.5 91.8011 8
      vertex 3.5 96.0761 4.38268
    endloop
  endfacet
  facet normal -1 0 0
    outer loop
      vertex 3.5 96.6173 4.92388
      vertex 3.5 91.8011 8
      vertex 3.5 100 8
    endloop
  endfacet
  facet normal -1 0 0
    outer loop
      vertex 3.5 96.0761 4.38268
      vertex 3.5 91.8011 8
      vertex 3.5 96.2929 4.70711
    endloop
  endfacet
endsolid OpenSCAD_Model
