solid OpenSCAD_Model
  facet normal -1 0 0
    outer loop
      vertex 0 0 3
      vertex 0 8.25 22
      vertex 0 8.25 3
    endloop
  endfacet
  facet normal -1 -0 0
    outer loop
      vertex 0 8.25 22
      vertex 0 0 3
      vertex 0 0 22
    endloop
  endfacet
  facet normal -1 0 0
    outer loop
      vertex 0 11.25 3
      vertex 0 19.5 22
      vertex 0 19.5 3
    endloop
  endfacet
  facet normal -1 -0 0
    outer loop
      vertex 0 19.5 22
      vertex 0 11.25 3
      vertex 0 11.25 22
    endloop
  endfacet
  facet normal 0 0 1
    outer loop
      vertex 2.5 8.25 22
      vertex 0 8.25 22
      vertex 2.5 3 22
    endloop
  endfacet
  facet normal 0 0 1
    outer loop
      vertex 30.5 19.5 22
      vertex 29 9.75 22
      vertex 30.5 0 22
    endloop
  endfacet
  facet normal 0 0 1
    outer loop
      vertex 30.5 19.5 22
      vertex 28.9239 10.1327 22
      vertex 29 9.75 22
    endloop
  endfacet
  facet normal 0 0 1
    outer loop
      vertex 30.5 19.5 22
      vertex 28.7071 10.4571 22
      vertex 28.9239 10.1327 22
    endloop
  endfacet
  facet normal 0 0 1
    outer loop
      vertex 30.5 19.5 22
      vertex 28.3827 10.6739 22
      vertex 28.7071 10.4571 22
    endloop
  endfacet
  facet normal -0 0 1
    outer loop
      vertex 26 16 22
      vertex 28.3827 10.6739 22
      vertex 30.5 19.5 22
    endloop
  endfacet
  facet normal 0 0 1
    outer loop
      vertex 28.3827 10.6739 22
      vertex 26 16 22
      vertex 28 10.75 22
    endloop
  endfacet
  facet normal 0 0 1
    outer loop
      vertex 28 10.75 22
      vertex 26 16 22
      vertex 27.6173 10.6739 22
    endloop
  endfacet
  facet normal 0 0 1
    outer loop
      vertex 27.6173 10.6739 22
      vertex 26 16 22
      vertex 27.2929 10.4571 22
    endloop
  endfacet
  facet normal 0 0 1
    outer loop
      vertex 27.0761 10.1327 22
      vertex 26 16 22
      vertex 27 9.75 22
    endloop
  endfacet
  facet normal 0 0 1
    outer loop
      vertex 27.2929 10.4571 22
      vertex 26 16 22
      vertex 27.0761 10.1327 22
    endloop
  endfacet
  facet normal -0 0 1
    outer loop
      vertex 0 19.5 22
      vertex 26 16 22
      vertex 30.5 19.5 22
    endloop
  endfacet
  facet normal 0 0 1
    outer loop
      vertex 26 16 22
      vertex 0 19.5 22
      vertex 2.5 16 22
    endloop
  endfacet
  facet normal 0 0 1
    outer loop
      vertex 0 11.25 22
      vertex 2.5 16 22
      vertex 0 19.5 22
    endloop
  endfacet
  facet normal 0 0 1
    outer loop
      vertex 2.5 16 22
      vertex 0 11.25 22
      vertex 2.5 11.25 22
    endloop
  endfacet
  facet normal -0 0 1
    outer loop
      vertex 28.9239 9.36732 22
      vertex 30.5 0 22
      vertex 29 9.75 22
    endloop
  endfacet
  facet normal -0 0 1
    outer loop
      vertex 28.7071 9.04289 22
      vertex 30.5 0 22
      vertex 28.9239 9.36732 22
    endloop
  endfacet
  facet normal -0 0 1
    outer loop
      vertex 28.3827 8.82612 22
      vertex 30.5 0 22
      vertex 28.7071 9.04289 22
    endloop
  endfacet
  facet normal 0 0 1
    outer loop
      vertex 26 3 22
      vertex 28.3827 8.82612 22
      vertex 28 8.75 22
    endloop
  endfacet
  facet normal 0 0 1
    outer loop
      vertex 26 3 22
      vertex 28 8.75 22
      vertex 27.6173 8.82612 22
    endloop
  endfacet
  facet normal 0 0 1
    outer loop
      vertex 26 3 22
      vertex 27.6173 8.82612 22
      vertex 27.2929 9.04289 22
    endloop
  endfacet
  facet normal 0 0 1
    outer loop
      vertex 26 3 22
      vertex 27.2929 9.04289 22
      vertex 27.0761 9.36732 22
    endloop
  endfacet
  facet normal 0 0 1
    outer loop
      vertex 26 3 22
      vertex 27 9.75 22
      vertex 26 16 22
    endloop
  endfacet
  facet normal 0 0 1
    outer loop
      vertex 26 3 22
      vertex 27.0761 9.36732 22
      vertex 27 9.75 22
    endloop
  endfacet
  facet normal 0 0 1
    outer loop
      vertex 28.3827 8.82612 22
      vertex 26 3 22
      vertex 30.5 0 22
    endloop
  endfacet
  facet normal 0 0 1
    outer loop
      vertex 0 0 22
      vertex 26 3 22
      vertex 2.5 3 22
    endloop
  endfacet
  facet normal 0 0 1
    outer loop
      vertex 26 3 22
      vertex 0 0 22
      vertex 30.5 0 22
    endloop
  endfacet
  facet normal 0 0 1
    outer loop
      vertex 0 0 22
      vertex 2.5 3 22
      vertex 0 8.25 22
    endloop
  endfacet
  facet normal 1 -0 0
    outer loop
      vertex 30.5 0 22
      vertex 30.5 19.5 3
      vertex 30.5 19.5 22
    endloop
  endfacet
  facet normal 1 0 0
    outer loop
      vertex 30.5 19.5 3
      vertex 30.5 0 22
      vertex 30.5 0 3
    endloop
  endfacet
  facet normal 0 1 -0
    outer loop
      vertex 49 19.5 0
      vertex 30.5 19.5 3
      vertex 49 19.5 3
    endloop
  endfacet
  facet normal 0 1 0
    outer loop
      vertex 30.5 19.5 3
      vertex 49 19.5 0
      vertex 0 19.5 3
    endloop
  endfacet
  facet normal 0 1 0
    outer loop
      vertex -20 19.5 0
      vertex 0 19.5 3
      vertex 49 19.5 0
    endloop
  endfacet
  facet normal 0 1 0
    outer loop
      vertex 0 19.5 3
      vertex -20 19.5 0
      vertex -20 19.5 3
    endloop
  endfacet
  facet normal 0 1 -0
    outer loop
      vertex 30.5 19.5 3
      vertex 0 19.5 22
      vertex 30.5 19.5 22
    endloop
  endfacet
  facet normal 0 1 0
    outer loop
      vertex 0 19.5 22
      vertex 30.5 19.5 3
      vertex 0 19.5 3
    endloop
  endfacet
  facet normal 0 0 -1
    outer loop
      vertex -9.07612 6.08268 0
      vertex -9 13.8 0
      vertex -9 5.7 0
    endloop
  endfacet
  facet normal 0 0 -1
    outer loop
      vertex -9.07612 6.08268 0
      vertex -9.07612 13.4173 0
      vertex -9 13.8 0
    endloop
  endfacet
  facet normal 0 0 -1
    outer loop
      vertex -9.29289 6.40711 0
      vertex -9.07612 13.4173 0
      vertex -9.07612 6.08268 0
    endloop
  endfacet
  facet normal 0 0 -1
    outer loop
      vertex -9.29289 6.40711 0
      vertex -9.29289 13.0929 0
      vertex -9.07612 13.4173 0
    endloop
  endfacet
  facet normal 0 0 -1
    outer loop
      vertex -9.61732 6.62388 0
      vertex -9.29289 13.0929 0
      vertex -9.29289 6.40711 0
    endloop
  endfacet
  facet normal 0 0 -1
    outer loop
      vertex -9.61732 6.62388 0
      vertex -9.61732 12.8761 0
      vertex -9.29289 13.0929 0
    endloop
  endfacet
  facet normal 0 0 -1
    outer loop
      vertex -10 6.7 0
      vertex -9.61732 12.8761 0
      vertex -9.61732 6.62388 0
    endloop
  endfacet
  facet normal 0 0 -1
    outer loop
      vertex -10 6.7 0
      vertex -10 12.8 0
      vertex -9.61732 12.8761 0
    endloop
  endfacet
  facet normal 0 0 -1
    outer loop
      vertex -10.3827 6.62388 0
      vertex -10 12.8 0
      vertex -10 6.7 0
    endloop
  endfacet
  facet normal 0 0 -1
    outer loop
      vertex -10.3827 6.62388 0
      vertex -10.3827 12.8761 0
      vertex -10 12.8 0
    endloop
  endfacet
  facet normal 0 0 -1
    outer loop
      vertex -10.7071 6.40711 0
      vertex -10.3827 12.8761 0
      vertex -10.3827 6.62388 0
    endloop
  endfacet
  facet normal 0 0 -1
    outer loop
      vertex -10.7071 6.40711 0
      vertex -10.7071 13.0929 0
      vertex -10.3827 12.8761 0
    endloop
  endfacet
  facet normal 0 0 -1
    outer loop
      vertex -10.9239 6.08268 0
      vertex -10.7071 13.0929 0
      vertex -10.7071 6.40711 0
    endloop
  endfacet
  facet normal 0 0 -1
    outer loop
      vertex -10.9239 6.08268 0
      vertex -10.9239 13.4173 0
      vertex -10.7071 13.0929 0
    endloop
  endfacet
  facet normal 0 0 -1
    outer loop
      vertex -20 0 0
      vertex -10.9239 6.08268 0
      vertex -11 5.7 0
    endloop
  endfacet
  facet normal -0 0 -1
    outer loop
      vertex -10.9239 6.08268 0
      vertex -20 0 0
      vertex -10.9239 13.4173 0
    endloop
  endfacet
  facet normal 0 0 -1
    outer loop
      vertex 39.9239 13.4173 0
      vertex 49 19.5 0
      vertex 39.9239 6.08268 0
    endloop
  endfacet
  facet normal 0 0 -1
    outer loop
      vertex 49 19.5 0
      vertex 39.9239 13.4173 0
      vertex 40 13.8 0
    endloop
  endfacet
  facet normal 0 0 -1
    outer loop
      vertex 39.7071 6.40711 0
      vertex 39.9239 13.4173 0
      vertex 39.9239 6.08268 0
    endloop
  endfacet
  facet normal 0 0 -1
    outer loop
      vertex 39.7071 6.40711 0
      vertex 39.7071 13.0929 0
      vertex 39.9239 13.4173 0
    endloop
  endfacet
  facet normal 0 0 -1
    outer loop
      vertex 39.3827 6.62388 0
      vertex 39.7071 13.0929 0
      vertex 39.7071 6.40711 0
    endloop
  endfacet
  facet normal 0 0 -1
    outer loop
      vertex 39.3827 6.62388 0
      vertex 39.3827 12.8761 0
      vertex 39.7071 13.0929 0
    endloop
  endfacet
  facet normal 0 0 -1
    outer loop
      vertex 39 6.7 0
      vertex 39.3827 12.8761 0
      vertex 39.3827 6.62388 0
    endloop
  endfacet
  facet normal 0 0 -1
    outer loop
      vertex 39 6.7 0
      vertex 39 12.8 0
      vertex 39.3827 12.8761 0
    endloop
  endfacet
  facet normal 0 0 -1
    outer loop
      vertex 38.6173 6.62388 0
      vertex 39 12.8 0
      vertex 39 6.7 0
    endloop
  endfacet
  facet normal 0 0 -1
    outer loop
      vertex 38.6173 6.62388 0
      vertex 38.6173 12.8761 0
      vertex 39 12.8 0
    endloop
  endfacet
  facet normal 0 0 -1
    outer loop
      vertex 38.2929 6.40711 0
      vertex 38.6173 12.8761 0
      vertex 38.6173 6.62388 0
    endloop
  endfacet
  facet normal 0 0 -1
    outer loop
      vertex 38.2929 6.40711 0
      vertex 38.2929 13.0929 0
      vertex 38.6173 12.8761 0
    endloop
  endfacet
  facet normal 0 0 -1
    outer loop
      vertex 38.0761 6.08268 0
      vertex 38.2929 13.0929 0
      vertex 38.2929 6.40711 0
    endloop
  endfacet
  facet normal 0 0 -1
    outer loop
      vertex 38.0761 6.08268 0
      vertex 38.0761 13.4173 0
      vertex 38.2929 13.0929 0
    endloop
  endfacet
  facet normal 0 0 -1
    outer loop
      vertex 38 5.7 0
      vertex 38.0761 13.4173 0
      vertex 38.0761 6.08268 0
    endloop
  endfacet
  facet normal -0 0 -1
    outer loop
      vertex 38.0761 13.4173 0
      vertex 38 5.7 0
      vertex 38 13.8 0
    endloop
  endfacet
  facet normal 0 0 -1
    outer loop
      vertex 39.9239 6.08268 0
      vertex 49 0 0
      vertex 40 5.7 0
    endloop
  endfacet
  facet normal 0 0 -1
    outer loop
      vertex 49 0 0
      vertex 39.9239 5.31732 0
      vertex 40 5.7 0
    endloop
  endfacet
  facet normal 0 0 -1
    outer loop
      vertex 49 0 0
      vertex 39.7071 4.99289 0
      vertex 39.9239 5.31732 0
    endloop
  endfacet
  facet normal 0 0 -1
    outer loop
      vertex 49 0 0
      vertex 39.3827 4.77612 0
      vertex 39.7071 4.99289 0
    endloop
  endfacet
  facet normal 0 0 -1
    outer loop
      vertex 49 0 0
      vertex 39 4.7 0
      vertex 39.3827 4.77612 0
    endloop
  endfacet
  facet normal 0 0 -1
    outer loop
      vertex 49 0 0
      vertex 38.6173 4.77612 0
      vertex 39 4.7 0
    endloop
  endfacet
  facet normal 0 0 -1
    outer loop
      vertex 38 5.7 0
      vertex -9 5.7 0
      vertex 38 13.8 0
    endloop
  endfacet
  facet normal 0 0 -1
    outer loop
      vertex 38.0761 5.31732 0
      vertex -9 5.7 0
      vertex 38 5.7 0
    endloop
  endfacet
  facet normal 0 0 -1
    outer loop
      vertex -9.07612 5.31732 0
      vertex 38.0761 5.31732 0
      vertex 38.2929 4.99289 0
    endloop
  endfacet
  facet normal 0 0 -1
    outer loop
      vertex -9.29289 4.99289 0
      vertex 38.2929 4.99289 0
      vertex 38.6173 4.77612 0
    endloop
  endfacet
  facet normal 0 0 -1
    outer loop
      vertex -9.61732 4.77612 0
      vertex 38.6173 4.77612 0
      vertex 49 0 0
    endloop
  endfacet
  facet normal 0 0 -1
    outer loop
      vertex 38.0761 5.31732 0
      vertex -9.07612 5.31732 0
      vertex -9 5.7 0
    endloop
  endfacet
  facet normal 0 0 -1
    outer loop
      vertex 38.2929 4.99289 0
      vertex -9.29289 4.99289 0
      vertex -9.07612 5.31732 0
    endloop
  endfacet
  facet normal 0 0 -1
    outer loop
      vertex 38.6173 4.77612 0
      vertex -9.61732 4.77612 0
      vertex -9.29289 4.99289 0
    endloop
  endfacet
  facet normal 0 0 -1
    outer loop
      vertex -20 0 0
      vertex -9.61732 4.77612 0
      vertex 49 0 0
    endloop
  endfacet
  facet normal 0 0 -1
    outer loop
      vertex -20 19.5 0
      vertex -10.9239 13.4173 0
      vertex -20 0 0
    endloop
  endfacet
  facet normal -0 0 -1
    outer loop
      vertex -10.9239 5.31732 0
      vertex -20 0 0
      vertex -11 5.7 0
    endloop
  endfacet
  facet normal -0 0 -1
    outer loop
      vertex -10.7071 4.99289 0
      vertex -20 0 0
      vertex -10.9239 5.31732 0
    endloop
  endfacet
  facet normal -0 0 -1
    outer loop
      vertex -10.3827 4.77612 0
      vertex -20 0 0
      vertex -10.7071 4.99289 0
    endloop
  endfacet
  facet normal -0 0 -1
    outer loop
      vertex -10 4.7 0
      vertex -20 0 0
      vertex -10.3827 4.77612 0
    endloop
  endfacet
  facet normal 0 0 -1
    outer loop
      vertex -9.61732 4.77612 0
      vertex -20 0 0
      vertex -10 4.7 0
    endloop
  endfacet
  facet normal 0 0 -1
    outer loop
      vertex 49 0 0
      vertex 39.9239 6.08268 0
      vertex 49 19.5 0
    endloop
  endfacet
  facet normal 0 0 -1
    outer loop
      vertex 39.9239 14.1827 0
      vertex 49 19.5 0
      vertex 40 13.8 0
    endloop
  endfacet
  facet normal 0 0 -1
    outer loop
      vertex 39.7071 14.5071 0
      vertex 49 19.5 0
      vertex 39.9239 14.1827 0
    endloop
  endfacet
  facet normal 0 0 -1
    outer loop
      vertex 39.3827 14.7239 0
      vertex 49 19.5 0
      vertex 39.7071 14.5071 0
    endloop
  endfacet
  facet normal 0 0 -1
    outer loop
      vertex 39 14.8 0
      vertex 49 19.5 0
      vertex 39.3827 14.7239 0
    endloop
  endfacet
  facet normal 0 0 -1
    outer loop
      vertex 38.6173 14.7239 0
      vertex 49 19.5 0
      vertex 39 14.8 0
    endloop
  endfacet
  facet normal 0 0 -1
    outer loop
      vertex -9 13.8 0
      vertex 38 13.8 0
      vertex -9 5.7 0
    endloop
  endfacet
  facet normal 0 0 -1
    outer loop
      vertex 38 13.8 0
      vertex -9 13.8 0
      vertex 38.0761 14.1827 0
    endloop
  endfacet
  facet normal 0 0 -1
    outer loop
      vertex -9.07612 14.1827 0
      vertex 38.0761 14.1827 0
      vertex -9 13.8 0
    endloop
  endfacet
  facet normal 0 0 -1
    outer loop
      vertex 38.0761 14.1827 0
      vertex -9.07612 14.1827 0
      vertex 38.2929 14.5071 0
    endloop
  endfacet
  facet normal 0 0 -1
    outer loop
      vertex -9.29289 14.5071 0
      vertex 38.2929 14.5071 0
      vertex -9.07612 14.1827 0
    endloop
  endfacet
  facet normal 0 0 -1
    outer loop
      vertex 38.2929 14.5071 0
      vertex -9.29289 14.5071 0
      vertex 38.6173 14.7239 0
    endloop
  endfacet
  facet normal 0 0 -1
    outer loop
      vertex -9.61732 14.7239 0
      vertex 38.6173 14.7239 0
      vertex -9.29289 14.5071 0
    endloop
  endfacet
  facet normal 0 0 -1
    outer loop
      vertex 38.6173 14.7239 0
      vertex -9.61732 14.7239 0
      vertex 49 19.5 0
    endloop
  endfacet
  facet normal 0 0 -1
    outer loop
      vertex -20 19.5 0
      vertex -9.61732 14.7239 0
      vertex -10 14.8 0
    endloop
  endfacet
  facet normal 0 0 -1
    outer loop
      vertex -10.9239 13.4173 0
      vertex -20 19.5 0
      vertex -11 13.8 0
    endloop
  endfacet
  facet normal 0 0 -1
    outer loop
      vertex -9.61732 14.7239 0
      vertex -20 19.5 0
      vertex 49 19.5 0
    endloop
  endfacet
  facet normal 0 0 -1
    outer loop
      vertex -10.3827 14.7239 0
      vertex -20 19.5 0
      vertex -10 14.8 0
    endloop
  endfacet
  facet normal 0 0 -1
    outer loop
      vertex -10.7071 14.5071 0
      vertex -20 19.5 0
      vertex -10.3827 14.7239 0
    endloop
  endfacet
  facet normal 0 0 -1
    outer loop
      vertex -10.9239 14.1827 0
      vertex -20 19.5 0
      vertex -10.7071 14.5071 0
    endloop
  endfacet
  facet normal 0 0 -1
    outer loop
      vertex -11 13.8 0
      vertex -20 19.5 0
      vertex -10.9239 14.1827 0
    endloop
  endfacet
  facet normal 0 -1 0
    outer loop
      vertex -20 0 0
      vertex 0 0 3
      vertex -20 0 3
    endloop
  endfacet
  facet normal 0 -1 0
    outer loop
      vertex 49 0 0
      vertex 0 0 3
      vertex -20 0 0
    endloop
  endfacet
  facet normal 0 -1 0
    outer loop
      vertex 0 0 3
      vertex 49 0 0
      vertex 30.5 0 3
    endloop
  endfacet
  facet normal 0 -1 0
    outer loop
      vertex 30.5 0 3
      vertex 49 0 0
      vertex 49 0 3
    endloop
  endfacet
  facet normal 0 -1 0
    outer loop
      vertex 0 0 3
      vertex 30.5 0 22
      vertex 0 0 22
    endloop
  endfacet
  facet normal 0 -1 -0
    outer loop
      vertex 30.5 0 22
      vertex 0 0 3
      vertex 30.5 0 3
    endloop
  endfacet
  facet normal 1 -0 0
    outer loop
      vertex 2.5 11.25 22
      vertex 2.5 16 3
      vertex 2.5 16 22
    endloop
  endfacet
  facet normal 1 0 0
    outer loop
      vertex 2.5 16 3
      vertex 2.5 11.25 22
      vertex 2.5 11.25 3
    endloop
  endfacet
  facet normal 1 -0 0
    outer loop
      vertex 2.5 3 22
      vertex 2.5 8.25 3
      vertex 2.5 8.25 22
    endloop
  endfacet
  facet normal 1 0 0
    outer loop
      vertex 2.5 8.25 3
      vertex 2.5 3 22
      vertex 2.5 3 3
    endloop
  endfacet
  facet normal -1 0 0
    outer loop
      vertex 26 3 3
      vertex 26 16 22
      vertex 26 16 3
    endloop
  endfacet
  facet normal -1 -0 0
    outer loop
      vertex 26 16 22
      vertex 26 3 3
      vertex 26 3 22
    endloop
  endfacet
  facet normal 0 0 1
    outer loop
      vertex 0 11.25 3
      vertex -9.29289 13.0929 3
      vertex 0 8.25 3
    endloop
  endfacet
  facet normal 0 0 1
    outer loop
      vertex 0 8.25 3
      vertex -9.07612 6.08268 3
      vertex -9 5.7 3
    endloop
  endfacet
  facet normal 0 0 1
    outer loop
      vertex -9.29289 6.40711 3
      vertex 0 8.25 3
      vertex -9.29289 13.0929 3
    endloop
  endfacet
  facet normal 0 0 1
    outer loop
      vertex 0 8.25 3
      vertex -9.29289 6.40711 3
      vertex -9.07612 6.08268 3
    endloop
  endfacet
  facet normal -0 0 1
    outer loop
      vertex -9.61732 12.8761 3
      vertex -9.29289 6.40711 3
      vertex -9.29289 13.0929 3
    endloop
  endfacet
  facet normal 0 0 1
    outer loop
      vertex -9.61732 12.8761 3
      vertex -9.61732 6.62388 3
      vertex -9.29289 6.40711 3
    endloop
  endfacet
  facet normal -0 0 1
    outer loop
      vertex -10 12.8 3
      vertex -9.61732 6.62388 3
      vertex -9.61732 12.8761 3
    endloop
  endfacet
  facet normal 0 0 1
    outer loop
      vertex -10 12.8 3
      vertex -10 6.7 3
      vertex -9.61732 6.62388 3
    endloop
  endfacet
  facet normal 0 0 1
    outer loop
      vertex -10.3827 12.8761 3
      vertex -10 6.7 3
      vertex -10 12.8 3
    endloop
  endfacet
  facet normal 0 0 1
    outer loop
      vertex -10.3827 12.8761 3
      vertex -10.3827 6.62388 3
      vertex -10 6.7 3
    endloop
  endfacet
  facet normal 0 0 1
    outer loop
      vertex -10.7071 13.0929 3
      vertex -10.3827 6.62388 3
      vertex -10.3827 12.8761 3
    endloop
  endfacet
  facet normal 0 0 1
    outer loop
      vertex -10.7071 13.0929 3
      vertex -10.7071 6.40711 3
      vertex -10.3827 6.62388 3
    endloop
  endfacet
  facet normal 0 0 1
    outer loop
      vertex -10.9239 13.4173 3
      vertex -10.7071 6.40711 3
      vertex -10.7071 13.0929 3
    endloop
  endfacet
  facet normal 0 0 1
    outer loop
      vertex -10.9239 13.4173 3
      vertex -10.9239 6.08268 3
      vertex -10.7071 6.40711 3
    endloop
  endfacet
  facet normal 0 0 1
    outer loop
      vertex -20 19.5 3
      vertex -10.9239 13.4173 3
      vertex -11 13.8 3
    endloop
  endfacet
  facet normal 0 0 1
    outer loop
      vertex -10.9239 13.4173 3
      vertex -20 19.5 3
      vertex -10.9239 6.08268 3
    endloop
  endfacet
  facet normal -0 0 1
    outer loop
      vertex -9.07612 14.1827 3
      vertex 0 11.25 3
      vertex 0 19.5 3
    endloop
  endfacet
  facet normal -0 0 1
    outer loop
      vertex -9.07612 13.4173 3
      vertex 0 11.25 3
      vertex -9 13.8 3
    endloop
  endfacet
  facet normal -0 0 1
    outer loop
      vertex -9.29289 13.0929 3
      vertex 0 11.25 3
      vertex -9.07612 13.4173 3
    endloop
  endfacet
  facet normal 0 0 1
    outer loop
      vertex 0 11.25 3
      vertex -9.07612 14.1827 3
      vertex -9 13.8 3
    endloop
  endfacet
  facet normal 0 0 1
    outer loop
      vertex 0 19.5 3
      vertex -9.29289 14.5071 3
      vertex -9.07612 14.1827 3
    endloop
  endfacet
  facet normal 0 0 1
    outer loop
      vertex 0 19.5 3
      vertex -9.61732 14.7239 3
      vertex -9.29289 14.5071 3
    endloop
  endfacet
  facet normal 0 0 1
    outer loop
      vertex 0 19.5 3
      vertex -10 14.8 3
      vertex -9.61732 14.7239 3
    endloop
  endfacet
  facet normal -0 0 1
    outer loop
      vertex -20 19.5 3
      vertex -10 14.8 3
      vertex 0 19.5 3
    endloop
  endfacet
  facet normal 0 0 1
    outer loop
      vertex -20 0 3
      vertex -10.9239 6.08268 3
      vertex -20 19.5 3
    endloop
  endfacet
  facet normal 0 0 1
    outer loop
      vertex -10.9239 14.1827 3
      vertex -20 19.5 3
      vertex -11 13.8 3
    endloop
  endfacet
  facet normal 0 0 1
    outer loop
      vertex -10.7071 14.5071 3
      vertex -20 19.5 3
      vertex -10.9239 14.1827 3
    endloop
  endfacet
  facet normal 0 0 1
    outer loop
      vertex -10.3827 14.7239 3
      vertex -20 19.5 3
      vertex -10.7071 14.5071 3
    endloop
  endfacet
  facet normal 0 0 1
    outer loop
      vertex -10 14.8 3
      vertex -20 19.5 3
      vertex -10.3827 14.7239 3
    endloop
  endfacet
  facet normal -0 0 1
    outer loop
      vertex 0 11.25 3
      vertex 2.5 8.25 3
      vertex 2.5 11.25 3
    endloop
  endfacet
  facet normal 0 0 1
    outer loop
      vertex 2.5 8.25 3
      vertex 0 11.25 3
      vertex 0 8.25 3
    endloop
  endfacet
  facet normal 0 0 1
    outer loop
      vertex 2.5 11.25 3
      vertex 26 16 3
      vertex 2.5 16 3
    endloop
  endfacet
  facet normal 0 0 1
    outer loop
      vertex 2.5 8.25 3
      vertex 26 16 3
      vertex 2.5 11.25 3
    endloop
  endfacet
  facet normal 0 0 1
    outer loop
      vertex 26 16 3
      vertex 2.5 8.25 3
      vertex 26 3 3
    endloop
  endfacet
  facet normal 0 0 1
    outer loop
      vertex 26 3 3
      vertex 2.5 8.25 3
      vertex 2.5 3 3
    endloop
  endfacet
  facet normal 0 0 1
    outer loop
      vertex -9.07612 5.31732 3
      vertex 0 8.25 3
      vertex -9 5.7 3
    endloop
  endfacet
  facet normal 0 0 1
    outer loop
      vertex 0 8.25 3
      vertex -9.07612 5.31732 3
      vertex 0 0 3
    endloop
  endfacet
  facet normal -0 0 1
    outer loop
      vertex -9.29289 4.99289 3
      vertex 0 0 3
      vertex -9.07612 5.31732 3
    endloop
  endfacet
  facet normal -0 0 1
    outer loop
      vertex -9.61732 4.77612 3
      vertex 0 0 3
      vertex -9.29289 4.99289 3
    endloop
  endfacet
  facet normal -0 0 1
    outer loop
      vertex -10 4.7 3
      vertex 0 0 3
      vertex -9.61732 4.77612 3
    endloop
  endfacet
  facet normal 0 0 1
    outer loop
      vertex -20 0 3
      vertex -10 4.7 3
      vertex -10.3827 4.77612 3
    endloop
  endfacet
  facet normal 0 0 1
    outer loop
      vertex -10.9239 6.08268 3
      vertex -20 0 3
      vertex -11 5.7 3
    endloop
  endfacet
  facet normal 0 0 1
    outer loop
      vertex -10 4.7 3
      vertex -20 0 3
      vertex 0 0 3
    endloop
  endfacet
  facet normal 0 0 1
    outer loop
      vertex -10.7071 4.99289 3
      vertex -20 0 3
      vertex -10.3827 4.77612 3
    endloop
  endfacet
  facet normal 0 0 1
    outer loop
      vertex -10.9239 5.31732 3
      vertex -20 0 3
      vertex -10.7071 4.99289 3
    endloop
  endfacet
  facet normal 0 0 1
    outer loop
      vertex -11 5.7 3
      vertex -20 0 3
      vertex -10.9239 5.31732 3
    endloop
  endfacet
  facet normal -0 0 1
    outer loop
      vertex 39.9239 6.08268 3
      vertex 49 0 3
      vertex 39.9239 13.4173 3
    endloop
  endfacet
  facet normal 0 0 1
    outer loop
      vertex 49 0 3
      vertex 39.9239 6.08268 3
      vertex 40 5.7 3
    endloop
  endfacet
  facet normal -0 0 1
    outer loop
      vertex 39.7071 13.0929 3
      vertex 39.9239 6.08268 3
      vertex 39.9239 13.4173 3
    endloop
  endfacet
  facet normal 0 0 1
    outer loop
      vertex 39.7071 13.0929 3
      vertex 39.7071 6.40711 3
      vertex 39.9239 6.08268 3
    endloop
  endfacet
  facet normal -0 0 1
    outer loop
      vertex 39.3827 12.8761 3
      vertex 39.7071 6.40711 3
      vertex 39.7071 13.0929 3
    endloop
  endfacet
  facet normal 0 0 1
    outer loop
      vertex 39.3827 12.8761 3
      vertex 39.3827 6.62388 3
      vertex 39.7071 6.40711 3
    endloop
  endfacet
  facet normal -0 0 1
    outer loop
      vertex 39 12.8 3
      vertex 39.3827 6.62388 3
      vertex 39.3827 12.8761 3
    endloop
  endfacet
  facet normal 0 0 1
    outer loop
      vertex 39 12.8 3
      vertex 39 6.7 3
      vertex 39.3827 6.62388 3
    endloop
  endfacet
  facet normal 0 0 1
    outer loop
      vertex 38.6173 12.8761 3
      vertex 39 6.7 3
      vertex 39 12.8 3
    endloop
  endfacet
  facet normal 0 0 1
    outer loop
      vertex 38.6173 12.8761 3
      vertex 38.6173 6.62388 3
      vertex 39 6.7 3
    endloop
  endfacet
  facet normal 0 0 1
    outer loop
      vertex 38.2929 13.0929 3
      vertex 38.6173 6.62388 3
      vertex 38.6173 12.8761 3
    endloop
  endfacet
  facet normal 0 0 1
    outer loop
      vertex 38.2929 13.0929 3
      vertex 38.2929 6.40711 3
      vertex 38.6173 6.62388 3
    endloop
  endfacet
  facet normal 0 0 1
    outer loop
      vertex 38.0761 13.4173 3
      vertex 38.2929 6.40711 3
      vertex 38.2929 13.0929 3
    endloop
  endfacet
  facet normal 0 0 1
    outer loop
      vertex 38.0761 13.4173 3
      vertex 38.0761 6.08268 3
      vertex 38.2929 6.40711 3
    endloop
  endfacet
  facet normal 0 0 1
    outer loop
      vertex 30.5 19.5 3
      vertex 38.0761 13.4173 3
      vertex 38 13.8 3
    endloop
  endfacet
  facet normal 0 0 1
    outer loop
      vertex 38.0761 13.4173 3
      vertex 30.5 19.5 3
      vertex 38.0761 6.08268 3
    endloop
  endfacet
  facet normal 0 0 1
    outer loop
      vertex 39.9239 13.4173 3
      vertex 49 19.5 3
      vertex 40 13.8 3
    endloop
  endfacet
  facet normal 0 0 1
    outer loop
      vertex 49 19.5 3
      vertex 39.9239 14.1827 3
      vertex 40 13.8 3
    endloop
  endfacet
  facet normal 0 0 1
    outer loop
      vertex 49 19.5 3
      vertex 39.7071 14.5071 3
      vertex 39.9239 14.1827 3
    endloop
  endfacet
  facet normal 0 0 1
    outer loop
      vertex 49 19.5 3
      vertex 39.3827 14.7239 3
      vertex 39.7071 14.5071 3
    endloop
  endfacet
  facet normal 0 0 1
    outer loop
      vertex 49 19.5 3
      vertex 39 14.8 3
      vertex 39.3827 14.7239 3
    endloop
  endfacet
  facet normal -0 0 1
    outer loop
      vertex 30.5 19.5 3
      vertex 39 14.8 3
      vertex 49 19.5 3
    endloop
  endfacet
  facet normal 0 0 1
    outer loop
      vertex 30.5 0 3
      vertex 38.0761 6.08268 3
      vertex 30.5 19.5 3
    endloop
  endfacet
  facet normal 0 0 1
    outer loop
      vertex 38.0761 14.1827 3
      vertex 30.5 19.5 3
      vertex 38 13.8 3
    endloop
  endfacet
  facet normal 0 0 1
    outer loop
      vertex 38.2929 14.5071 3
      vertex 30.5 19.5 3
      vertex 38.0761 14.1827 3
    endloop
  endfacet
  facet normal 0 0 1
    outer loop
      vertex 38.6173 14.7239 3
      vertex 30.5 19.5 3
      vertex 38.2929 14.5071 3
    endloop
  endfacet
  facet normal 0 0 1
    outer loop
      vertex 39 14.8 3
      vertex 30.5 19.5 3
      vertex 38.6173 14.7239 3
    endloop
  endfacet
  facet normal 0 0 1
    outer loop
      vertex 49 19.5 3
      vertex 39.9239 13.4173 3
      vertex 49 0 3
    endloop
  endfacet
  facet normal -0 0 1
    outer loop
      vertex 39.9239 5.31732 3
      vertex 49 0 3
      vertex 40 5.7 3
    endloop
  endfacet
  facet normal -0 0 1
    outer loop
      vertex 39.7071 4.99289 3
      vertex 49 0 3
      vertex 39.9239 5.31732 3
    endloop
  endfacet
  facet normal -0 0 1
    outer loop
      vertex 39.3827 4.77612 3
      vertex 49 0 3
      vertex 39.7071 4.99289 3
    endloop
  endfacet
  facet normal -0 0 1
    outer loop
      vertex 39 4.7 3
      vertex 49 0 3
      vertex 39.3827 4.77612 3
    endloop
  endfacet
  facet normal 0 0 1
    outer loop
      vertex 30.5 0 3
      vertex 39 4.7 3
      vertex 38.6173 4.77612 3
    endloop
  endfacet
  facet normal 0 0 1
    outer loop
      vertex 38.0761 6.08268 3
      vertex 30.5 0 3
      vertex 38 5.7 3
    endloop
  endfacet
  facet normal 0 0 1
    outer loop
      vertex 39 4.7 3
      vertex 30.5 0 3
      vertex 49 0 3
    endloop
  endfacet
  facet normal 0 0 1
    outer loop
      vertex 38.2929 4.99289 3
      vertex 30.5 0 3
      vertex 38.6173 4.77612 3
    endloop
  endfacet
  facet normal 0 0 1
    outer loop
      vertex 38.0761 5.31732 3
      vertex 30.5 0 3
      vertex 38.2929 4.99289 3
    endloop
  endfacet
  facet normal 0 0 1
    outer loop
      vertex 38 5.7 3
      vertex 30.5 0 3
      vertex 38.0761 5.31732 3
    endloop
  endfacet
  facet normal 0 1 -0
    outer loop
      vertex 26 3 3
      vertex 2.5 3 22
      vertex 26 3 22
    endloop
  endfacet
  facet normal 0 1 0
    outer loop
      vertex 2.5 3 22
      vertex 26 3 3
      vertex 2.5 3 3
    endloop
  endfacet
  facet normal 0 -1 0
    outer loop
      vertex 2.5 16 3
      vertex 26 16 22
      vertex 2.5 16 22
    endloop
  endfacet
  facet normal 0 -1 -0
    outer loop
      vertex 26 16 22
      vertex 2.5 16 3
      vertex 26 16 3
    endloop
  endfacet
  facet normal 0 1 -0
    outer loop
      vertex 2.5 8.25 3
      vertex 0 8.25 22
      vertex 2.5 8.25 22
    endloop
  endfacet
  facet normal 0 1 0
    outer loop
      vertex 0 8.25 22
      vertex 2.5 8.25 3
      vertex 0 8.25 3
    endloop
  endfacet
  facet normal 0 -1 0
    outer loop
      vertex 0 11.25 3
      vertex 2.5 11.25 22
      vertex 0 11.25 22
    endloop
  endfacet
  facet normal 0 -1 -0
    outer loop
      vertex 2.5 11.25 22
      vertex 0 11.25 3
      vertex 2.5 11.25 3
    endloop
  endfacet
  facet normal -0.980784 -0.195095 0
    outer loop
      vertex 29 9.75 10
      vertex 28.9239 10.1327 22
      vertex 28.9239 10.1327 10
    endloop
  endfacet
  facet normal -0.980784 -0.195095 0
    outer loop
      vertex 28.9239 10.1327 22
      vertex 29 9.75 10
      vertex 29 9.75 22
    endloop
  endfacet
  facet normal -0.195093 -0.980785 0
    outer loop
      vertex 28 10.75 10
      vertex 28.3827 10.6739 22
      vertex 28 10.75 22
    endloop
  endfacet
  facet normal -0.195093 -0.980785 -0
    outer loop
      vertex 28.3827 10.6739 22
      vertex 28 10.75 10
      vertex 28.3827 10.6739 10
    endloop
  endfacet
  facet normal 0.980785 0.19509 0
    outer loop
      vertex 27.0761 9.36732 22
      vertex 27 9.75 10
      vertex 27 9.75 22
    endloop
  endfacet
  facet normal 0.980785 0.19509 0
    outer loop
      vertex 27 9.75 10
      vertex 27.0761 9.36732 22
      vertex 27.0761 9.36732 10
    endloop
  endfacet
  facet normal -0.831473 0.555565 0
    outer loop
      vertex 28.7071 9.04289 10
      vertex 28.9239 9.36732 22
      vertex 28.9239 9.36732 10
    endloop
  endfacet
  facet normal -0.831473 0.555565 0
    outer loop
      vertex 28.9239 9.36732 22
      vertex 28.7071 9.04289 10
      vertex 28.7071 9.04289 22
    endloop
  endfacet
  facet normal -0.555567 0.831472 0
    outer loop
      vertex 28.7071 9.04289 10
      vertex 28.3827 8.82612 22
      vertex 28.7071 9.04289 22
    endloop
  endfacet
  facet normal -0.555567 0.831472 0
    outer loop
      vertex 28.3827 8.82612 22
      vertex 28.7071 9.04289 10
      vertex 28.3827 8.82612 10
    endloop
  endfacet
  facet normal -0.19509 0.980785 0
    outer loop
      vertex 28.3827 8.82612 10
      vertex 28 8.75 22
      vertex 28.3827 8.82612 22
    endloop
  endfacet
  facet normal -0.19509 0.980785 0
    outer loop
      vertex 28 8.75 22
      vertex 28.3827 8.82612 10
      vertex 28 8.75 10
    endloop
  endfacet
  facet normal -0.555567 -0.831472 0
    outer loop
      vertex 28.3827 10.6739 10
      vertex 28.7071 10.4571 22
      vertex 28.3827 10.6739 22
    endloop
  endfacet
  facet normal -0.555567 -0.831472 -0
    outer loop
      vertex 28.7071 10.4571 22
      vertex 28.3827 10.6739 10
      vertex 28.7071 10.4571 10
    endloop
  endfacet
  facet normal -0.831473 -0.555565 0
    outer loop
      vertex 28.9239 10.1327 10
      vertex 28.7071 10.4571 22
      vertex 28.7071 10.4571 10
    endloop
  endfacet
  facet normal -0.831473 -0.555565 0
    outer loop
      vertex 28.7071 10.4571 22
      vertex 28.9239 10.1327 10
      vertex 28.9239 10.1327 22
    endloop
  endfacet
  facet normal 0.195093 -0.980785 0
    outer loop
      vertex 27.6173 10.6739 10
      vertex 28 10.75 22
      vertex 27.6173 10.6739 22
    endloop
  endfacet
  facet normal 0.195093 -0.980785 0
    outer loop
      vertex 28 10.75 22
      vertex 27.6173 10.6739 10
      vertex 28 10.75 10
    endloop
  endfacet
  facet normal 0 0 1
    outer loop
      vertex 28.9239 10.1327 10
      vertex 28.9239 9.36732 10
      vertex 29 9.75 10
    endloop
  endfacet
  facet normal 0 0 1
    outer loop
      vertex 28.7071 10.4571 10
      vertex 28.9239 9.36732 10
      vertex 28.9239 10.1327 10
    endloop
  endfacet
  facet normal 0 0 1
    outer loop
      vertex 28.7071 10.4571 10
      vertex 28.7071 9.04289 10
      vertex 28.9239 9.36732 10
    endloop
  endfacet
  facet normal 0 0 1
    outer loop
      vertex 28.3827 10.6739 10
      vertex 28.7071 9.04289 10
      vertex 28.7071 10.4571 10
    endloop
  endfacet
  facet normal 0 0 1
    outer loop
      vertex 28.3827 10.6739 10
      vertex 28.3827 8.82612 10
      vertex 28.7071 9.04289 10
    endloop
  endfacet
  facet normal 0 0 1
    outer loop
      vertex 28 10.75 10
      vertex 28.3827 8.82612 10
      vertex 28.3827 10.6739 10
    endloop
  endfacet
  facet normal 0 0 1
    outer loop
      vertex 28 10.75 10
      vertex 28 8.75 10
      vertex 28.3827 8.82612 10
    endloop
  endfacet
  facet normal -0 0 1
    outer loop
      vertex 27.6173 10.6739 10
      vertex 28 8.75 10
      vertex 28 10.75 10
    endloop
  endfacet
  facet normal 0 0 1
    outer loop
      vertex 27.6173 10.6739 10
      vertex 27.6173 8.82612 10
      vertex 28 8.75 10
    endloop
  endfacet
  facet normal -0 0 1
    outer loop
      vertex 27.2929 10.4571 10
      vertex 27.6173 8.82612 10
      vertex 27.6173 10.6739 10
    endloop
  endfacet
  facet normal 0 0 1
    outer loop
      vertex 27.2929 10.4571 10
      vertex 27.2929 9.04289 10
      vertex 27.6173 8.82612 10
    endloop
  endfacet
  facet normal -0 0 1
    outer loop
      vertex 27.0761 10.1327 10
      vertex 27.2929 9.04289 10
      vertex 27.2929 10.4571 10
    endloop
  endfacet
  facet normal 0 0 1
    outer loop
      vertex 27.0761 10.1327 10
      vertex 27.0761 9.36732 10
      vertex 27.2929 9.04289 10
    endloop
  endfacet
  facet normal 0 -0 1
    outer loop
      vertex 27.0761 9.36732 10
      vertex 27.0761 10.1327 10
      vertex 27 9.75 10
    endloop
  endfacet
  facet normal 0.555567 -0.831472 0
    outer loop
      vertex 27.2929 10.4571 10
      vertex 27.6173 10.6739 22
      vertex 27.2929 10.4571 22
    endloop
  endfacet
  facet normal 0.555567 -0.831472 0
    outer loop
      vertex 27.6173 10.6739 22
      vertex 27.2929 10.4571 10
      vertex 27.6173 10.6739 10
    endloop
  endfacet
  facet normal 0.980785 -0.19509 0
    outer loop
      vertex 27 9.75 22
      vertex 27.0761 10.1327 10
      vertex 27.0761 10.1327 22
    endloop
  endfacet
  facet normal 0.980785 -0.19509 0
    outer loop
      vertex 27.0761 10.1327 10
      vertex 27 9.75 22
      vertex 27 9.75 10
    endloop
  endfacet
  facet normal 0.831471 -0.555569 0
    outer loop
      vertex 27.0761 10.1327 22
      vertex 27.2929 10.4571 10
      vertex 27.2929 10.4571 22
    endloop
  endfacet
  facet normal 0.831471 -0.555569 0
    outer loop
      vertex 27.2929 10.4571 10
      vertex 27.0761 10.1327 22
      vertex 27.0761 10.1327 10
    endloop
  endfacet
  facet normal 0.831471 0.555569 0
    outer loop
      vertex 27.2929 9.04289 22
      vertex 27.0761 9.36732 10
      vertex 27.0761 9.36732 22
    endloop
  endfacet
  facet normal 0.831471 0.555569 0
    outer loop
      vertex 27.0761 9.36732 10
      vertex 27.2929 9.04289 22
      vertex 27.2929 9.04289 10
    endloop
  endfacet
  facet normal 0.19509 0.980785 -0
    outer loop
      vertex 28 8.75 10
      vertex 27.6173 8.82612 22
      vertex 28 8.75 22
    endloop
  endfacet
  facet normal 0.19509 0.980785 0
    outer loop
      vertex 27.6173 8.82612 22
      vertex 28 8.75 10
      vertex 27.6173 8.82612 10
    endloop
  endfacet
  facet normal 0.555567 0.831472 -0
    outer loop
      vertex 27.6173 8.82612 10
      vertex 27.2929 9.04289 22
      vertex 27.6173 8.82612 22
    endloop
  endfacet
  facet normal 0.555567 0.831472 0
    outer loop
      vertex 27.2929 9.04289 22
      vertex 27.6173 8.82612 10
      vertex 27.2929 9.04289 10
    endloop
  endfacet
  facet normal -0.980784 0.195095 0
    outer loop
      vertex 28.9239 9.36732 10
      vertex 29 9.75 22
      vertex 29 9.75 10
    endloop
  endfacet
  facet normal -0.980784 0.195095 0
    outer loop
      vertex 29 9.75 22
      vertex 28.9239 9.36732 10
      vertex 28.9239 9.36732 22
    endloop
  endfacet
  facet normal -1 0 0
    outer loop
      vertex -20 0 0
      vertex -20 19.5 3
      vertex -20 19.5 0
    endloop
  endfacet
  facet normal -1 -0 0
    outer loop
      vertex -20 19.5 3
      vertex -20 0 0
      vertex -20 0 3
    endloop
  endfacet
  facet normal 1 -0 0
    outer loop
      vertex 49 0 3
      vertex 49 19.5 0
      vertex 49 19.5 3
    endloop
  endfacet
  facet normal 1 0 0
    outer loop
      vertex 49 19.5 0
      vertex 49 0 3
      vertex 49 0 0
    endloop
  endfacet
  facet normal -0.980785 -0.19509 0
    outer loop
      vertex -9 5.7 0
      vertex -9.07612 6.08268 3
      vertex -9.07612 6.08268 0
    endloop
  endfacet
  facet normal -0.980785 -0.19509 0
    outer loop
      vertex -9.07612 6.08268 3
      vertex -9 5.7 0
      vertex -9 5.7 3
    endloop
  endfacet
  facet normal 0.980785 -0.195093 0
    outer loop
      vertex -11 5.7 3
      vertex -10.9239 6.08268 0
      vertex -10.9239 6.08268 3
    endloop
  endfacet
  facet normal 0.980785 -0.195093 0
    outer loop
      vertex -10.9239 6.08268 0
      vertex -11 5.7 3
      vertex -11 5.7 0
    endloop
  endfacet
  facet normal 0.980785 0.195092 0
    outer loop
      vertex -10.9239 5.31732 3
      vertex -11 5.7 0
      vertex -11 5.7 3
    endloop
  endfacet
  facet normal 0.980785 0.195092 0
    outer loop
      vertex -11 5.7 0
      vertex -10.9239 5.31732 3
      vertex -10.9239 5.31732 0
    endloop
  endfacet
  facet normal -0.19509 -0.980785 0
    outer loop
      vertex -10 6.7 0
      vertex -9.61732 6.62388 3
      vertex -10 6.7 3
    endloop
  endfacet
  facet normal -0.19509 -0.980785 -0
    outer loop
      vertex -9.61732 6.62388 3
      vertex -10 6.7 0
      vertex -9.61732 6.62388 0
    endloop
  endfacet
  facet normal -0.831471 -0.555569 0
    outer loop
      vertex -9.07612 6.08268 0
      vertex -9.29289 6.40711 3
      vertex -9.29289 6.40711 0
    endloop
  endfacet
  facet normal -0.831471 -0.555569 0
    outer loop
      vertex -9.29289 6.40711 3
      vertex -9.07612 6.08268 0
      vertex -9.07612 6.08268 3
    endloop
  endfacet
  facet normal -0.55557 -0.83147 0
    outer loop
      vertex -9.61732 6.62388 0
      vertex -9.29289 6.40711 3
      vertex -9.61732 6.62388 3
    endloop
  endfacet
  facet normal -0.55557 -0.83147 -0
    outer loop
      vertex -9.29289 6.40711 3
      vertex -9.61732 6.62388 0
      vertex -9.29289 6.40711 0
    endloop
  endfacet
  facet normal 0.19509 -0.980785 0
    outer loop
      vertex -10.3827 6.62388 0
      vertex -10 6.7 3
      vertex -10.3827 6.62388 3
    endloop
  endfacet
  facet normal 0.19509 -0.980785 0
    outer loop
      vertex -10 6.7 3
      vertex -10.3827 6.62388 0
      vertex -10 6.7 0
    endloop
  endfacet
  facet normal 0.831471 -0.555569 0
    outer loop
      vertex -10.9239 6.08268 3
      vertex -10.7071 6.40711 0
      vertex -10.7071 6.40711 3
    endloop
  endfacet
  facet normal 0.831471 -0.555569 0
    outer loop
      vertex -10.7071 6.40711 0
      vertex -10.9239 6.08268 3
      vertex -10.9239 6.08268 0
    endloop
  endfacet
  facet normal 0.55557 -0.83147 0
    outer loop
      vertex -10.7071 6.40711 0
      vertex -10.3827 6.62388 3
      vertex -10.7071 6.40711 3
    endloop
  endfacet
  facet normal 0.55557 -0.83147 0
    outer loop
      vertex -10.3827 6.62388 3
      vertex -10.7071 6.40711 0
      vertex -10.3827 6.62388 0
    endloop
  endfacet
  facet normal -0.555569 0.831471 0
    outer loop
      vertex -9.29289 4.99289 0
      vertex -9.61732 4.77612 3
      vertex -9.29289 4.99289 3
    endloop
  endfacet
  facet normal -0.555569 0.831471 0
    outer loop
      vertex -9.61732 4.77612 3
      vertex -9.29289 4.99289 0
      vertex -9.61732 4.77612 0
    endloop
  endfacet
  facet normal -0.831471 0.555569 0
    outer loop
      vertex -9.29289 4.99289 0
      vertex -9.07612 5.31732 3
      vertex -9.07612 5.31732 0
    endloop
  endfacet
  facet normal -0.831471 0.555569 0
    outer loop
      vertex -9.07612 5.31732 3
      vertex -9.29289 4.99289 0
      vertex -9.29289 4.99289 3
    endloop
  endfacet
  facet normal -0.980785 0.19509 0
    outer loop
      vertex -9.07612 5.31732 0
      vertex -9 5.7 3
      vertex -9 5.7 0
    endloop
  endfacet
  facet normal -0.980785 0.19509 0
    outer loop
      vertex -9 5.7 3
      vertex -9.07612 5.31732 0
      vertex -9.07612 5.31732 3
    endloop
  endfacet
  facet normal 0.831471 0.555569 0
    outer loop
      vertex -10.7071 4.99289 3
      vertex -10.9239 5.31732 0
      vertex -10.9239 5.31732 3
    endloop
  endfacet
  facet normal 0.831471 0.555569 0
    outer loop
      vertex -10.9239 5.31732 0
      vertex -10.7071 4.99289 3
      vertex -10.7071 4.99289 0
    endloop
  endfacet
  facet normal -0.19509 0.980785 0
    outer loop
      vertex -9.61732 4.77612 0
      vertex -10 4.7 3
      vertex -9.61732 4.77612 3
    endloop
  endfacet
  facet normal -0.19509 0.980785 0
    outer loop
      vertex -10 4.7 3
      vertex -9.61732 4.77612 0
      vertex -10 4.7 0
    endloop
  endfacet
  facet normal 0.19509 0.980785 -0
    outer loop
      vertex -10 4.7 0
      vertex -10.3827 4.77612 3
      vertex -10 4.7 3
    endloop
  endfacet
  facet normal 0.19509 0.980785 0
    outer loop
      vertex -10.3827 4.77612 3
      vertex -10 4.7 0
      vertex -10.3827 4.77612 0
    endloop
  endfacet
  facet normal 0.555569 0.831471 -0
    outer loop
      vertex -10.3827 4.77612 0
      vertex -10.7071 4.99289 3
      vertex -10.3827 4.77612 3
    endloop
  endfacet
  facet normal 0.555569 0.831471 0
    outer loop
      vertex -10.7071 4.99289 3
      vertex -10.3827 4.77612 0
      vertex -10.7071 4.99289 0
    endloop
  endfacet
  facet normal -0.980785 -0.19509 0
    outer loop
      vertex -9 13.8 0
      vertex -9.07612 14.1827 3
      vertex -9.07612 14.1827 0
    endloop
  endfacet
  facet normal -0.980785 -0.19509 0
    outer loop
      vertex -9.07612 14.1827 3
      vertex -9 13.8 0
      vertex -9 13.8 3
    endloop
  endfacet
  facet normal 0.980785 -0.195092 0
    outer loop
      vertex -11 13.8 3
      vertex -10.9239 14.1827 0
      vertex -10.9239 14.1827 3
    endloop
  endfacet
  facet normal 0.980785 -0.195092 0
    outer loop
      vertex -10.9239 14.1827 0
      vertex -11 13.8 3
      vertex -11 13.8 0
    endloop
  endfacet
  facet normal 0.19509 -0.980785 0
    outer loop
      vertex -10.3827 14.7239 0
      vertex -10 14.8 3
      vertex -10.3827 14.7239 3
    endloop
  endfacet
  facet normal 0.19509 -0.980785 0
    outer loop
      vertex -10 14.8 3
      vertex -10.3827 14.7239 0
      vertex -10 14.8 0
    endloop
  endfacet
  facet normal 0.555569 -0.831471 0
    outer loop
      vertex -10.7071 14.5071 0
      vertex -10.3827 14.7239 3
      vertex -10.7071 14.5071 3
    endloop
  endfacet
  facet normal 0.555569 -0.831471 0
    outer loop
      vertex -10.3827 14.7239 3
      vertex -10.7071 14.5071 0
      vertex -10.3827 14.7239 0
    endloop
  endfacet
  facet normal -0.555569 -0.831471 0
    outer loop
      vertex -9.61732 14.7239 0
      vertex -9.29289 14.5071 3
      vertex -9.61732 14.7239 3
    endloop
  endfacet
  facet normal -0.555569 -0.831471 -0
    outer loop
      vertex -9.29289 14.5071 3
      vertex -9.61732 14.7239 0
      vertex -9.29289 14.5071 0
    endloop
  endfacet
  facet normal -0.831471 -0.555569 0
    outer loop
      vertex -9.07612 14.1827 0
      vertex -9.29289 14.5071 3
      vertex -9.29289 14.5071 0
    endloop
  endfacet
  facet normal -0.831471 -0.555569 0
    outer loop
      vertex -9.29289 14.5071 3
      vertex -9.07612 14.1827 0
      vertex -9.07612 14.1827 3
    endloop
  endfacet
  facet normal -0.19509 -0.980785 0
    outer loop
      vertex -10 14.8 0
      vertex -9.61732 14.7239 3
      vertex -10 14.8 3
    endloop
  endfacet
  facet normal -0.19509 -0.980785 -0
    outer loop
      vertex -9.61732 14.7239 3
      vertex -10 14.8 0
      vertex -9.61732 14.7239 0
    endloop
  endfacet
  facet normal 0.831471 -0.555569 0
    outer loop
      vertex -10.9239 14.1827 3
      vertex -10.7071 14.5071 0
      vertex -10.7071 14.5071 3
    endloop
  endfacet
  facet normal 0.831471 -0.555569 0
    outer loop
      vertex -10.7071 14.5071 0
      vertex -10.9239 14.1827 3
      vertex -10.9239 14.1827 0
    endloop
  endfacet
  facet normal -0.55557 0.83147 0
    outer loop
      vertex -9.29289 13.0929 0
      vertex -9.61732 12.8761 3
      vertex -9.29289 13.0929 3
    endloop
  endfacet
  facet normal -0.55557 0.83147 0
    outer loop
      vertex -9.61732 12.8761 3
      vertex -9.29289 13.0929 0
      vertex -9.61732 12.8761 0
    endloop
  endfacet
  facet normal -0.831471 0.555569 0
    outer loop
      vertex -9.29289 13.0929 0
      vertex -9.07612 13.4173 3
      vertex -9.07612 13.4173 0
    endloop
  endfacet
  facet normal -0.831471 0.555569 0
    outer loop
      vertex -9.07612 13.4173 3
      vertex -9.29289 13.0929 0
      vertex -9.29289 13.0929 3
    endloop
  endfacet
  facet normal -0.980785 0.19509 0
    outer loop
      vertex -9.07612 13.4173 0
      vertex -9 13.8 3
      vertex -9 13.8 0
    endloop
  endfacet
  facet normal -0.980785 0.19509 0
    outer loop
      vertex -9 13.8 3
      vertex -9.07612 13.4173 0
      vertex -9.07612 13.4173 3
    endloop
  endfacet
  facet normal 0.980785 0.195093 0
    outer loop
      vertex -10.9239 13.4173 3
      vertex -11 13.8 0
      vertex -11 13.8 3
    endloop
  endfacet
  facet normal 0.980785 0.195093 0
    outer loop
      vertex -11 13.8 0
      vertex -10.9239 13.4173 3
      vertex -10.9239 13.4173 0
    endloop
  endfacet
  facet normal 0.55557 0.83147 -0
    outer loop
      vertex -10.3827 12.8761 0
      vertex -10.7071 13.0929 3
      vertex -10.3827 12.8761 3
    endloop
  endfacet
  facet normal 0.55557 0.83147 0
    outer loop
      vertex -10.7071 13.0929 3
      vertex -10.3827 12.8761 0
      vertex -10.7071 13.0929 0
    endloop
  endfacet
  facet normal -0.19509 0.980785 0
    outer loop
      vertex -9.61732 12.8761 0
      vertex -10 12.8 3
      vertex -9.61732 12.8761 3
    endloop
  endfacet
  facet normal -0.19509 0.980785 0
    outer loop
      vertex -10 12.8 3
      vertex -9.61732 12.8761 0
      vertex -10 12.8 0
    endloop
  endfacet
  facet normal 0.19509 0.980785 -0
    outer loop
      vertex -10 12.8 0
      vertex -10.3827 12.8761 3
      vertex -10 12.8 3
    endloop
  endfacet
  facet normal 0.19509 0.980785 0
    outer loop
      vertex -10.3827 12.8761 3
      vertex -10 12.8 0
      vertex -10.3827 12.8761 0
    endloop
  endfacet
  facet normal 0.831471 0.555569 0
    outer loop
      vertex -10.7071 13.0929 3
      vertex -10.9239 13.4173 0
      vertex -10.9239 13.4173 3
    endloop
  endfacet
  facet normal 0.831471 0.555569 0
    outer loop
      vertex -10.9239 13.4173 0
      vertex -10.7071 13.0929 3
      vertex -10.7071 13.0929 0
    endloop
  endfacet
  facet normal -0.980784 -0.195095 0
    outer loop
      vertex 40 5.7 0
      vertex 39.9239 6.08268 3
      vertex 39.9239 6.08268 0
    endloop
  endfacet
  facet normal -0.980784 -0.195095 0
    outer loop
      vertex 39.9239 6.08268 3
      vertex 40 5.7 0
      vertex 40 5.7 3
    endloop
  endfacet
  facet normal -0.19509 -0.980785 0
    outer loop
      vertex 39 6.7 0
      vertex 39.3827 6.62388 3
      vertex 39 6.7 3
    endloop
  endfacet
  facet normal -0.19509 -0.980785 -0
    outer loop
      vertex 39.3827 6.62388 3
      vertex 39 6.7 0
      vertex 39.3827 6.62388 0
    endloop
  endfacet
  facet normal 0.980786 0.195085 0
    outer loop
      vertex 38.0761 5.31732 3
      vertex 38 5.7 0
      vertex 38 5.7 3
    endloop
  endfacet
  facet normal 0.980786 0.195085 0
    outer loop
      vertex 38 5.7 0
      vertex 38.0761 5.31732 3
      vertex 38.0761 5.31732 0
    endloop
  endfacet
  facet normal -0.831473 0.555565 0
    outer loop
      vertex 39.7071 4.99289 0
      vertex 39.9239 5.31732 3
      vertex 39.9239 5.31732 0
    endloop
  endfacet
  facet normal -0.831473 0.555565 0
    outer loop
      vertex 39.9239 5.31732 3
      vertex 39.7071 4.99289 0
      vertex 39.7071 4.99289 3
    endloop
  endfacet
  facet normal -0.555567 0.831472 0
    outer loop
      vertex 39.7071 4.99289 0
      vertex 39.3827 4.77612 3
      vertex 39.7071 4.99289 3
    endloop
  endfacet
  facet normal -0.555567 0.831472 0
    outer loop
      vertex 39.3827 4.77612 3
      vertex 39.7071 4.99289 0
      vertex 39.3827 4.77612 0
    endloop
  endfacet
  facet normal -0.19509 0.980785 0
    outer loop
      vertex 39.3827 4.77612 0
      vertex 39 4.7 3
      vertex 39.3827 4.77612 3
    endloop
  endfacet
  facet normal -0.19509 0.980785 0
    outer loop
      vertex 39 4.7 3
      vertex 39.3827 4.77612 0
      vertex 39 4.7 0
    endloop
  endfacet
  facet normal -0.555569 -0.83147 0
    outer loop
      vertex 39.3827 6.62388 0
      vertex 39.7071 6.40711 3
      vertex 39.3827 6.62388 3
    endloop
  endfacet
  facet normal -0.555569 -0.83147 -0
    outer loop
      vertex 39.7071 6.40711 3
      vertex 39.3827 6.62388 0
      vertex 39.7071 6.40711 0
    endloop
  endfacet
  facet normal -0.831473 -0.555565 0
    outer loop
      vertex 39.9239 6.08268 0
      vertex 39.7071 6.40711 3
      vertex 39.7071 6.40711 0
    endloop
  endfacet
  facet normal -0.831473 -0.555565 0
    outer loop
      vertex 39.7071 6.40711 3
      vertex 39.9239 6.08268 0
      vertex 39.9239 6.08268 3
    endloop
  endfacet
  facet normal 0.19509 -0.980785 0
    outer loop
      vertex 38.6173 6.62388 0
      vertex 39 6.7 3
      vertex 38.6173 6.62388 3
    endloop
  endfacet
  facet normal 0.19509 -0.980785 0
    outer loop
      vertex 39 6.7 3
      vertex 38.6173 6.62388 0
      vertex 39 6.7 0
    endloop
  endfacet
  facet normal 0.555569 -0.83147 0
    outer loop
      vertex 38.2929 6.40711 0
      vertex 38.6173 6.62388 3
      vertex 38.2929 6.40711 3
    endloop
  endfacet
  facet normal 0.555569 -0.83147 0
    outer loop
      vertex 38.6173 6.62388 3
      vertex 38.2929 6.40711 0
      vertex 38.6173 6.62388 0
    endloop
  endfacet
  facet normal 0.980786 -0.195086 0
    outer loop
      vertex 38 5.7 3
      vertex 38.0761 6.08268 0
      vertex 38.0761 6.08268 3
    endloop
  endfacet
  facet normal 0.980786 -0.195086 0
    outer loop
      vertex 38.0761 6.08268 0
      vertex 38 5.7 3
      vertex 38 5.7 0
    endloop
  endfacet
  facet normal 0.831468 -0.555572 0
    outer loop
      vertex 38.0761 6.08268 3
      vertex 38.2929 6.40711 0
      vertex 38.2929 6.40711 3
    endloop
  endfacet
  facet normal 0.831468 -0.555572 0
    outer loop
      vertex 38.2929 6.40711 0
      vertex 38.0761 6.08268 3
      vertex 38.0761 6.08268 0
    endloop
  endfacet
  facet normal 0.831468 0.555572 0
    outer loop
      vertex 38.2929 4.99289 3
      vertex 38.0761 5.31732 0
      vertex 38.0761 5.31732 3
    endloop
  endfacet
  facet normal 0.831468 0.555572 0
    outer loop
      vertex 38.0761 5.31732 0
      vertex 38.2929 4.99289 3
      vertex 38.2929 4.99289 0
    endloop
  endfacet
  facet normal 0.19509 0.980785 -0
    outer loop
      vertex 39 4.7 0
      vertex 38.6173 4.77612 3
      vertex 39 4.7 3
    endloop
  endfacet
  facet normal 0.19509 0.980785 0
    outer loop
      vertex 38.6173 4.77612 3
      vertex 39 4.7 0
      vertex 38.6173 4.77612 0
    endloop
  endfacet
  facet normal 0.555567 0.831472 -0
    outer loop
      vertex 38.6173 4.77612 0
      vertex 38.2929 4.99289 3
      vertex 38.6173 4.77612 3
    endloop
  endfacet
  facet normal 0.555567 0.831472 0
    outer loop
      vertex 38.2929 4.99289 3
      vertex 38.6173 4.77612 0
      vertex 38.2929 4.99289 0
    endloop
  endfacet
  facet normal -0.980784 0.195095 0
    outer loop
      vertex 39.9239 5.31732 0
      vertex 40 5.7 3
      vertex 40 5.7 0
    endloop
  endfacet
  facet normal -0.980784 0.195095 0
    outer loop
      vertex 40 5.7 3
      vertex 39.9239 5.31732 0
      vertex 39.9239 5.31732 3
    endloop
  endfacet
  facet normal -0.980784 -0.195095 0
    outer loop
      vertex 40 13.8 0
      vertex 39.9239 14.1827 3
      vertex 39.9239 14.1827 0
    endloop
  endfacet
  facet normal -0.980784 -0.195095 0
    outer loop
      vertex 39.9239 14.1827 3
      vertex 40 13.8 0
      vertex 40 13.8 3
    endloop
  endfacet
  facet normal 0.19509 -0.980785 0
    outer loop
      vertex 38.6173 14.7239 0
      vertex 39 14.8 3
      vertex 38.6173 14.7239 3
    endloop
  endfacet
  facet normal 0.19509 -0.980785 0
    outer loop
      vertex 39 14.8 3
      vertex 38.6173 14.7239 0
      vertex 39 14.8 0
    endloop
  endfacet
  facet normal 0.980786 0.195086 0
    outer loop
      vertex 38.0761 13.4173 3
      vertex 38 13.8 0
      vertex 38 13.8 3
    endloop
  endfacet
  facet normal 0.980786 0.195086 0
    outer loop
      vertex 38 13.8 0
      vertex 38.0761 13.4173 3
      vertex 38.0761 13.4173 0
    endloop
  endfacet
  facet normal -0.555567 -0.831472 0
    outer loop
      vertex 39.3827 14.7239 0
      vertex 39.7071 14.5071 3
      vertex 39.3827 14.7239 3
    endloop
  endfacet
  facet normal -0.555567 -0.831472 -0
    outer loop
      vertex 39.7071 14.5071 3
      vertex 39.3827 14.7239 0
      vertex 39.7071 14.5071 0
    endloop
  endfacet
  facet normal -0.831473 -0.555565 0
    outer loop
      vertex 39.9239 14.1827 0
      vertex 39.7071 14.5071 3
      vertex 39.7071 14.5071 0
    endloop
  endfacet
  facet normal -0.831473 -0.555565 0
    outer loop
      vertex 39.7071 14.5071 3
      vertex 39.9239 14.1827 0
      vertex 39.9239 14.1827 3
    endloop
  endfacet
  facet normal 0.555567 -0.831472 0
    outer loop
      vertex 38.2929 14.5071 0
      vertex 38.6173 14.7239 3
      vertex 38.2929 14.5071 3
    endloop
  endfacet
  facet normal 0.555567 -0.831472 0
    outer loop
      vertex 38.6173 14.7239 3
      vertex 38.2929 14.5071 0
      vertex 38.6173 14.7239 0
    endloop
  endfacet
  facet normal 0.831468 -0.555572 0
    outer loop
      vertex 38.0761 14.1827 3
      vertex 38.2929 14.5071 0
      vertex 38.2929 14.5071 3
    endloop
  endfacet
  facet normal 0.831468 -0.555572 0
    outer loop
      vertex 38.2929 14.5071 0
      vertex 38.0761 14.1827 3
      vertex 38.0761 14.1827 0
    endloop
  endfacet
  facet normal -0.980784 0.195095 0
    outer loop
      vertex 39.9239 13.4173 0
      vertex 40 13.8 3
      vertex 40 13.8 0
    endloop
  endfacet
  facet normal -0.980784 0.195095 0
    outer loop
      vertex 40 13.8 3
      vertex 39.9239 13.4173 0
      vertex 39.9239 13.4173 3
    endloop
  endfacet
  facet normal 0.831468 0.555572 0
    outer loop
      vertex 38.2929 13.0929 3
      vertex 38.0761 13.4173 0
      vertex 38.0761 13.4173 3
    endloop
  endfacet
  facet normal 0.831468 0.555572 0
    outer loop
      vertex 38.0761 13.4173 0
      vertex 38.2929 13.0929 3
      vertex 38.2929 13.0929 0
    endloop
  endfacet
  facet normal -0.19509 -0.980785 0
    outer loop
      vertex 39 14.8 0
      vertex 39.3827 14.7239 3
      vertex 39 14.8 3
    endloop
  endfacet
  facet normal -0.19509 -0.980785 -0
    outer loop
      vertex 39.3827 14.7239 3
      vertex 39 14.8 0
      vertex 39.3827 14.7239 0
    endloop
  endfacet
  facet normal 0.980786 -0.195085 0
    outer loop
      vertex 38 13.8 3
      vertex 38.0761 14.1827 0
      vertex 38.0761 14.1827 3
    endloop
  endfacet
  facet normal 0.980786 -0.195085 0
    outer loop
      vertex 38.0761 14.1827 0
      vertex 38 13.8 3
      vertex 38 13.8 0
    endloop
  endfacet
  facet normal -0.555569 0.83147 0
    outer loop
      vertex 39.7071 13.0929 0
      vertex 39.3827 12.8761 3
      vertex 39.7071 13.0929 3
    endloop
  endfacet
  facet normal -0.555569 0.83147 0
    outer loop
      vertex 39.3827 12.8761 3
      vertex 39.7071 13.0929 0
      vertex 39.3827 12.8761 0
    endloop
  endfacet
  facet normal -0.831473 0.555565 0
    outer loop
      vertex 39.7071 13.0929 0
      vertex 39.9239 13.4173 3
      vertex 39.9239 13.4173 0
    endloop
  endfacet
  facet normal -0.831473 0.555565 0
    outer loop
      vertex 39.9239 13.4173 3
      vertex 39.7071 13.0929 0
      vertex 39.7071 13.0929 3
    endloop
  endfacet
  facet normal 0.555569 0.83147 -0
    outer loop
      vertex 38.6173 12.8761 0
      vertex 38.2929 13.0929 3
      vertex 38.6173 12.8761 3
    endloop
  endfacet
  facet normal 0.555569 0.83147 0
    outer loop
      vertex 38.2929 13.0929 3
      vertex 38.6173 12.8761 0
      vertex 38.2929 13.0929 0
    endloop
  endfacet
  facet normal -0.19509 0.980785 0
    outer loop
      vertex 39.3827 12.8761 0
      vertex 39 12.8 3
      vertex 39.3827 12.8761 3
    endloop
  endfacet
  facet normal -0.19509 0.980785 0
    outer loop
      vertex 39 12.8 3
      vertex 39.3827 12.8761 0
      vertex 39 12.8 0
    endloop
  endfacet
  facet normal 0.19509 0.980785 -0
    outer loop
      vertex 39 12.8 0
      vertex 38.6173 12.8761 3
      vertex 39 12.8 3
    endloop
  endfacet
  facet normal 0.19509 0.980785 0
    outer loop
      vertex 38.6173 12.8761 3
      vertex 39 12.8 0
      vertex 38.6173 12.8761 0
    endloop
  endfacet
endsolid OpenSCAD_Model
